<?xml version="1.0" encoding="UTF-8"?>
<svg width="97px" height="18px" viewBox="0 0 97 18" version="1.1" xmlns="http://www.w3.org/2000/svg" xmlns:xlink="http://www.w3.org/1999/xlink">
    <!-- Generator: Sketch 45.1 (43504) - http://www.bohemiancoding.com/sketch -->
    <title>The Grand Bliss Logo</title>
    <desc>Created with Sketch.</desc>
    <defs>
        <polygon id="path-1" points="0 0.286904348 0 8.39668696 6.038638 8.39668696 6.038638 0.286904348 0 0.286904348"></polygon>
    </defs>
    <g id="01-Homepage" stroke="none" stroke-width="1" fill="none" fill-rule="evenodd">
        <g id="Homapage-Desktop-Full-B" transform="translate(-483.000000, -2762.000000)">
            <g id="Footer" transform="translate(0.000000, 2353.000000)">
                <g id="Logos-Footer" transform="translate(131.000000, 398.000000)">
                    <g id="The-Grand-Bliss-Logo" transform="translate(352.000000, 11.000000)">
                        <g id="Page-1">
                            <path d="M95.764026,11.0394391 L95.764026,10.1097 L96.17259,10.1097 C96.254458,10.1097 96.318478,10.1183087 96.35883,10.1359174 C96.40345,10.1511783 96.437594,10.1809174 96.462038,10.2235696 C96.489198,10.2650478 96.500838,10.3123957 96.500838,10.3636565 C96.500838,10.428613 96.480274,10.4853522 96.437594,10.5315261 C96.396466,10.5753522 96.330118,10.6050913 96.241266,10.6168304 C96.27347,10.6332652 96.297914,10.6485261 96.314598,10.6614391 C96.350682,10.6958739 96.38405,10.7377435 96.415866,10.7870478 L96.576886,11.0394391 L96.42285,11.0394391 L96.301406,10.8465261 C96.265322,10.7905696 96.236222,10.7483087 96.213718,10.7189609 C96.190826,10.6900043 96.169098,10.6677 96.150862,10.6559609 C96.132626,10.6438304 96.115166,10.6371783 96.094602,10.6309174 C96.081022,10.6270043 96.05813,10.6270043 96.028254,10.6270043 L95.885082,10.6270043 L95.885082,11.0394391 L95.764026,11.0394391 Z M95.885082,10.5193957 L96.148534,10.5193957 C96.204018,10.5193957 96.24825,10.5147 96.279678,10.5033522 C96.310718,10.492787 96.33361,10.4720478 96.350682,10.4473957 C96.36659,10.4215696 96.375902,10.3941783 96.375902,10.3636565 C96.375902,10.3194391 96.35883,10.2838304 96.32779,10.2556565 C96.296362,10.2259174 96.244758,10.2130043 96.177246,10.2130043 L95.885082,10.2130043 L95.885082,10.5193957 Z" id="Fill-1" fill="#FEFEFE"></path>
                            <path d="M96.0993356,11.3982652 C95.6531356,11.3982652 95.2907436,11.0320043 95.2907436,10.5835696 C95.2907436,10.1347435 95.6531356,9.77004783 96.0993356,9.77004783 C96.5435956,9.77004783 96.9059876,10.1347435 96.9059876,10.5835696 C96.9059876,11.0320043 96.5435956,11.3982652 96.0993356,11.3982652 M96.0993356,9.8670913 C95.7070676,9.8670913 95.3873556,10.1879609 95.3873556,10.5835696 C95.3873556,10.9791783 95.7070676,11.3000478 96.0993356,11.3000478 C96.4908276,11.3000478 96.8085996,10.9791783 96.8085996,10.5835696 C96.8085996,10.1879609 96.4908276,9.8670913 96.0993356,9.8670913" id="Fill-3" fill="#FEFEFE"></path>
                            <g id="Group-7" transform="translate(0.000000, 9.376474)">
                                <mask id="mask-2" fill="white">
                                    <use xlink:href="#path-1"></use>
                                </mask>
                                <g id="Clip-6"></g>
                                <path d="M6.038638,0.286904348 C5.523762,0.303730435 5.021302,0.317426087 4.52893,0.327991304 C4.036558,0.340513043 3.535262,0.347165217 3.019222,0.347165217 C2.504734,0.347165217 2.00111,0.340513043 1.51029,0.327991304 C1.017142,0.317426087 0.514294,0.303730435 -0.000194,0.286904348 C0.038218,0.445773913 0.057618,0.567469565 0.057618,0.653165217 C0.057618,0.764295652 0.038218,0.889904348 -0.000194,1.03194783 C0.163154,1.00690435 0.348618,0.987730435 0.555422,0.972469565 C0.761062,0.956034783 0.976402,0.943121739 1.198338,0.930208696 C1.42105,0.919252174 1.643374,0.912208696 1.866086,0.90633913 C2.08841,0.902817391 2.30181,0.901252174 2.504734,0.901252174 C2.522194,1.54729565 2.52879,2.19451304 2.532282,2.84486087 C2.532282,3.01194783 2.539266,3.17786087 2.539266,3.34455652 L2.539266,5.37464348 C2.539266,5.89429565 2.529954,6.40612174 2.510554,6.90933913 C2.48999,7.41255652 2.468262,7.90912174 2.44537,8.39668696 C2.624626,8.38025217 2.81591,8.37164348 3.019222,8.37164348 C3.220982,8.37164348 3.41343,8.38025217 3.592686,8.39668696 C3.56863,7.90912174 3.548066,7.41255652 3.527502,6.90933913 C3.50849,6.40612174 3.49879,5.89429565 3.49879,5.37464348 L3.49879,3.34455652 C3.49879,3.17786087 3.505386,3.01194783 3.50655,2.84486087 C3.509654,2.19451304 3.515862,1.54729565 3.535262,0.901252174 C3.737022,0.901252174 3.949646,0.902817391 4.170806,0.90633913 C4.394682,0.912208696 4.617394,0.919252174 4.838554,0.930208696 C5.062042,0.943121739 5.274666,0.956034783 5.482634,0.972469565 C5.689826,0.987730435 5.874902,1.00690435 6.038638,1.03194783 C5.999838,0.889904348 5.979274,0.767817391 5.979274,0.666078261 C5.979274,0.571382609 5.999838,0.445773913 6.038638,0.286904348" id="Fill-5" fill="#FEFEFE" mask="url(#mask-2)"></path>
                            </g>
                            <path d="M14.2313356,14.7511174 L14.2313356,12.7214217 C14.2313356,12.5515957 14.2387076,12.3884217 14.2406476,12.2213348 C14.2441396,11.8754217 14.2468556,11.5287261 14.2600476,11.1922043 C14.2802236,10.6936826 14.3007876,10.1830304 14.3248436,9.66337826 C14.2227996,9.68098696 14.1250236,9.6939 14.0330676,9.70485652 C13.9391716,9.71776957 13.8448876,9.72481304 13.7509916,9.72481304 C13.6574836,9.72481304 13.5639756,9.71776957 13.4700796,9.70485652 C13.3769596,9.6939 13.2784076,9.68098696 13.1775276,9.66337826 C13.2004196,10.1830304 13.2233116,10.6936826 13.2427116,11.1922043 C13.2562916,11.5287261 13.2574556,11.8754217 13.2621116,12.2213348 C13.2644396,12.3884217 13.2714236,12.5515957 13.2714236,12.7214217 L13.2714236,13.1346391 C12.8504436,13.1428565 12.4418796,13.1499 12.0484476,13.1585087 C11.6542396,13.1663348 11.2464516,13.1698565 10.8262476,13.1698565 C10.4052676,13.1698565 9.9959276,13.1663348 9.6028836,13.1585087 C9.2086756,13.1499 8.7997236,13.1428565 8.3791316,13.1346391 L8.3791316,12.7214217 C8.3791316,12.5515957 8.3861156,12.3884217 8.3880556,12.2213348 C8.3930996,11.8754217 8.3958156,11.5287261 8.4090076,11.1922043 C8.4284076,10.6936826 8.4501356,10.1830304 8.4730276,9.66337826 C8.3709836,9.68098696 8.2743716,9.6939 8.1804756,9.70485652 C8.0865796,9.71776957 7.9930716,9.72481304 7.8991756,9.72481304 C7.8052796,9.72481304 7.7113836,9.71776957 7.6190396,9.70485652 C7.5251436,9.6939 7.4277556,9.68098696 7.3268756,9.66337826 C7.3486036,10.1830304 7.3714956,10.6936826 7.3901196,11.1922043 C7.4036996,11.5287261 7.4048636,11.8754217 7.4095196,12.2213348 C7.4118476,12.3884217 7.4196076,12.5515957 7.4196076,12.7214217 L7.4196076,14.7511174 C7.4196076,15.2695957 7.4095196,15.7837696 7.3901196,16.286987 C7.3714956,16.7890304 7.3486036,17.2855957 7.3268756,17.7731609 C7.5061316,17.7579 7.6974156,17.7481174 7.8991756,17.7481174 C8.1024876,17.7481174 8.2918316,17.7579 8.4730276,17.7731609 C8.4501356,17.2855957 8.4284076,16.7890304 8.4090076,16.286987 C8.3896076,15.7837696 8.3791316,15.2695957 8.3791316,14.7511174 L8.3791316,13.6887261 C8.7997236,13.6816826 9.2086756,13.675813 9.6028836,13.6719 C9.9959276,13.6683783 10.4052676,13.6664217 10.8262476,13.6664217 C11.2464516,13.6664217 11.6542396,13.6683783 12.0484476,13.6719 C12.4418796,13.675813 12.8504436,13.6816826 13.2714236,13.6887261 L13.2714236,14.7511174 C13.2714236,15.2695957 13.2609476,15.7837696 13.2427116,16.286987 C13.2233116,16.7890304 13.2004196,17.2855957 13.1775276,17.7731609 C13.3583356,17.7579 13.5480676,17.7481174 13.7509916,17.7481174 C13.9543036,17.7481174 14.1444236,17.7579 14.3248436,17.7731609 C14.3007876,17.2855957 14.2802236,16.7890304 14.2600476,16.286987 C14.2406476,15.7837696 14.2313356,15.2695957 14.2313356,14.7511174" id="Fill-8" fill="#FEFEFE"></path>
                            <path d="M20.6392332,17.2827391 C20.6427252,17.2166087 20.6539772,17.154 20.6679452,17.1003913 C20.4820932,17.1406957 20.2617092,17.1692609 20.0071812,17.1880435 C19.7534292,17.2095652 19.4837692,17.2236522 19.2005292,17.2353913 C18.9149612,17.2483043 18.6243492,17.2545652 18.3271412,17.2545652 L17.5080732,17.2545652 C17.5010892,17.105087 17.4952692,16.8836087 17.4917772,16.5924783 C17.4882852,16.3009565 17.4851812,15.9315652 17.4851812,15.4815652 L17.4851812,14.7748696 L17.4851812,14.315087 C17.4851812,14.1894783 17.4882852,14.0842174 17.4917772,14.0024348 C17.4952692,13.9183043 17.4975972,13.8423913 17.4975972,13.7727391 C17.6368892,13.7727391 17.8258452,13.773913 18.0652412,13.779 C18.3019212,13.7821304 18.5556732,13.7856522 18.8249452,13.7891739 C19.0946052,13.7942609 19.3634892,13.8032609 19.6331492,13.8177391 C19.9024212,13.8341739 20.1379372,13.8545217 20.3408612,13.8783913 C20.3168052,13.7598261 20.3051652,13.6412609 20.3051652,13.5250435 C20.3051652,13.3974783 20.3168052,13.2769565 20.3408612,13.1583913 C20.1697532,13.1744348 19.9873932,13.1877391 19.7980492,13.197913 C19.6052132,13.2116087 19.3976332,13.2233478 19.1702652,13.233913 C18.9440612,13.2456522 18.6953532,13.2562174 18.4222012,13.2636522 C18.1478852,13.2730435 17.8405892,13.2769565 17.4975972,13.2769565 C17.4975972,13.1274783 17.4952692,12.906 17.4917772,12.6144783 C17.4894492,12.4865217 17.4894492,12.3515217 17.4894492,12.2212174 C17.4882852,12.0545217 17.4851812,11.8897826 17.4851812,11.718 C17.4851812,11.4256957 17.4917772,11.1674348 17.5022532,10.9373478 C17.5135052,10.7111739 17.5239812,10.4697391 17.5321292,10.218913 C17.9131452,10.218913 18.2421692,10.2247826 18.5145452,10.2376957 C18.7876972,10.2482609 19.0387332,10.2615652 19.2699812,10.278 C19.4996772,10.2948261 19.7196732,10.308913 19.9253132,10.3245652 C20.1321172,10.3421739 20.3602612,10.3562609 20.6105212,10.3726957 C20.5864652,10.2541304 20.5744372,10.1355652 20.5744372,10.0173913 C20.5744372,9.9003913 20.5864652,9.783 20.6105212,9.66326087 C20.2593812,9.68086957 19.9117332,9.69378261 19.5683532,9.70473913 C19.2253612,9.71686957 18.8777132,9.72391304 18.5269612,9.72391304 C18.1758212,9.72391304 17.8258452,9.71686957 17.4793612,9.70473913 C17.1317132,9.69378261 16.7832892,9.68086957 16.4305972,9.66326087 C16.4558172,10.1676522 16.4763812,10.6712609 16.4973332,11.1744783 C16.5101372,11.5188261 16.5116892,11.8706087 16.5167332,12.2212174 C16.5186732,12.3847826 16.5248812,12.5436522 16.5248812,12.7091739 L16.5248812,14.7404348 C16.5248812,15.258913 16.5155692,15.7683913 16.4973332,16.2676957 C16.4763812,16.7677826 16.4558172,17.2698261 16.4305972,17.7730435 C16.7906612,17.7566087 17.1452932,17.748 17.4975972,17.748 L18.5614932,17.748 L19.6211212,17.748 C19.9687692,17.748 20.3168052,17.7566087 20.6679452,17.7730435 C20.6458292,17.694 20.6334132,17.5918696 20.6334132,17.4666522 C20.6334132,17.4118696 20.6345772,17.3504348 20.6392332,17.2827391" id="Fill-10" fill="#FEFEFE"></path>
                            <path d="M39.1431084,17.2888435 C38.9642404,17.0767565 38.7725684,16.8435391 38.5692564,16.5864522 C38.3674964,16.3309304 38.1556484,16.0640609 37.9383684,15.7834957 C37.7195364,15.5052783 37.5092404,15.2364522 37.3055404,14.981713 C37.1022284,14.7258 36.9198684,14.4906261 36.7565204,14.279713 C36.5923964,14.0664522 36.4628044,13.9021043 36.3700724,13.7819739 C36.5951124,13.7514522 36.8477004,13.6872783 37.1251204,13.5894522 C37.4017644,13.4908435 37.6617244,13.352713 37.9030604,13.1742783 C38.1447844,12.9981913 38.3492604,12.7755391 38.5164884,12.5020174 C38.5715844,12.4143652 38.6127124,12.3208435 38.6499604,12.2214522 C38.7267844,12.0140609 38.7690764,11.7859304 38.7690764,11.5284522 C38.7690764,11.1743217 38.7050564,10.8796696 38.5766284,10.6429304 C38.4482004,10.4085391 38.2712724,10.2168 38.0485604,10.0708435 C37.8262364,9.92645217 37.5678284,9.82236522 37.2706204,9.7581913 C36.9738004,9.69558261 36.6622364,9.66349565 36.3343764,9.66349565 C36.1093364,9.66349565 35.8858484,9.67406087 35.6677924,9.69401739 C35.4489604,9.7131913 35.2250844,9.72375652 35.0004324,9.72375652 C34.7742284,9.72375652 34.5507404,9.71710435 34.3334604,9.70614783 C34.1157924,9.69401739 33.8930804,9.68032174 33.6657124,9.66349565 C33.6897684,10.1831478 33.7103324,10.6934087 33.7297324,11.1923217 C33.7440884,11.5284522 33.7448644,11.876713 33.7502964,12.2214522 C33.7526244,12.3893217 33.7599964,12.551713 33.7599964,12.7195826 L33.7599964,14.7512348 C33.7599964,15.270887 33.7502964,15.7834957 33.7297324,16.2859304 C33.7103324,16.7891478 33.6897684,17.2853217 33.6657124,17.771713 C33.8438044,17.7576261 34.0362524,17.7494087 34.2395644,17.7494087 C34.4413244,17.7494087 34.6337724,17.7576261 34.8118644,17.771713 C34.7901364,17.2853217 34.7672444,16.7891478 34.7478444,16.2859304 C34.7292204,15.7834957 34.7191324,15.270887 34.7191324,14.7512348 L34.7191324,13.8895826 L35.1641684,13.8895826 C35.4128764,14.1501913 35.6895204,14.4651913 35.9890564,14.8396696 C36.2897564,15.2149304 36.5842484,15.5894087 36.8725324,15.9658435 C37.1615924,16.3450174 37.4246564,16.6991478 37.6628884,17.0294087 C37.9007324,17.3600609 38.0772724,17.6069739 38.1956124,17.771713 C38.3046404,17.7576261 38.4179364,17.7494087 38.5358884,17.7494087 L38.8746124,17.7494087 L39.2257524,17.7494087 C39.3425404,17.7494087 39.4589404,17.7576261 39.5757284,17.771713 C39.4674764,17.6629304 39.3219764,17.5021043 39.1431084,17.2888435 M35.5028924,13.452887 C35.3465284,13.452887 35.2052964,13.4493652 35.0760924,13.4411478 C34.9476644,13.4344957 34.8289364,13.4172783 34.7191324,13.3938 L34.7191324,12.7195826 C34.7191324,12.5540609 34.7261164,12.3885391 34.7292204,12.2214522 C34.7327124,11.9624087 34.7327124,11.7049304 34.7431884,11.4454957 C34.7590964,11.0213217 34.7742284,10.5920609 34.7901364,10.1592783 C34.9139084,10.1428435 35.0667804,10.1299304 35.2456484,10.1181913 C35.4249044,10.1072348 35.6511084,10.1013652 35.9250364,10.1013652 C36.1271844,10.1013652 36.3343764,10.1221043 36.5454484,10.1655391 C36.7565204,10.2089739 36.9509084,10.2884087 37.1297764,10.4085391 C37.3094204,10.5255391 37.4556964,10.6851913 37.5689924,10.8855391 C37.6815124,11.0866696 37.7385484,11.3390609 37.7385484,11.6470174 C37.7385484,11.8638 37.7024644,12.0492783 37.6481444,12.2214522 C37.6136124,12.3290609 37.5783044,12.4370609 37.5220444,12.5270609 C37.3777084,12.7579304 37.1972884,12.9434087 36.9780684,13.0811478 C36.7600124,13.218887 36.5190644,13.3143652 36.2583284,13.3699304 C35.9960404,13.4243217 35.7450044,13.452887 35.5028924,13.452887" id="Fill-12" fill="#FEFEFE"></path>
                            <path d="M46.9794668,16.9476261 C46.8196108,16.5852783 46.6388028,16.1732348 46.4405348,15.7126696 C46.2422668,15.2532783 46.0296428,14.7555391 45.8034388,14.2202348 C45.5760708,13.6849304 45.3502548,13.1461043 45.1240508,12.6037565 C45.0712828,12.4734522 45.0196788,12.3505826 44.9653588,12.2214522 C44.7946388,11.8094087 44.6239188,11.3969739 44.4574668,10.9919739 C44.2394108,10.4617565 44.0357108,9.96753913 43.8483068,9.51206087 L43.6255948,9.51206087 C43.2309988,10.4261478 42.8383428,11.3261478 42.4460748,12.2214522 C42.2334508,12.7043217 42.0216028,13.1879739 41.8128588,13.6661478 C41.2114588,15.0282783 40.5945388,16.395887 39.9620988,17.772887 C40.0951828,17.7576261 40.2399068,17.7494087 40.3958828,17.7494087 C40.5518588,17.7494087 40.6965828,17.7576261 40.8285028,17.772887 C40.9297708,17.4109304 41.0818668,16.952713 41.2859548,16.3982348 C41.4881028,15.8429739 41.7154708,15.2587565 41.9641788,14.6440174 C42.2055148,14.6373652 42.4441348,14.6311043 42.6780988,14.6264087 C42.9120628,14.622887 43.1495188,14.6221043 43.3916308,14.6221043 C43.6496508,14.6221043 43.9068948,14.622887 44.1649148,14.6264087 C44.4206068,14.6311043 44.6755228,14.6373652 44.9253948,14.6440174 C45.0266628,14.9046261 45.1345268,15.1785391 45.2524788,15.4661478 C45.3692668,15.7525826 45.4856668,16.0370609 45.5977988,16.3152783 C45.7103188,16.5950609 45.8139148,16.8623217 45.9078108,17.1170609 C46.0017068,17.3741478 46.0762028,17.591713 46.1316868,17.772887 C46.2395508,17.7576261 46.3435348,17.7494087 46.4405348,17.7494087 L46.7509348,17.7494087 L47.0609468,17.7494087 C47.1583348,17.7494087 47.2615428,17.7576261 47.3705708,17.772887 C47.2704668,17.5834957 47.1389348,17.3091913 46.9794668,16.9476261 M44.1055508,14.1208435 C43.8882708,14.1243652 43.6690508,14.1259304 43.4513828,14.1259304 C43.2469068,14.1259304 43.0381628,14.1220174 42.8189428,14.1153652 C42.6001108,14.1051913 42.3886508,14.1020609 42.1857268,14.1020609 L42.9861708,12.2214522 L43.4626348,11.1031043 L43.9468588,12.2214522 L44.7604948,14.1020609 C44.5424388,14.1114522 44.3243828,14.1161478 44.1055508,14.1208435" id="Fill-14" fill="#FEFEFE"></path>
                            <path d="M55.2483288,9.72375652 C55.1385248,9.72375652 55.0066048,9.70223478 54.8506288,9.66349565 C54.8898168,10.3561043 54.9150368,11.0941043 54.9259008,11.876713 C54.9286168,11.9905826 54.9286168,12.1068 54.9309448,12.2214522 C54.9390928,12.8964522 54.9437488,13.5843652 54.9437488,14.2914522 L54.9437488,15.8950174 C54.5844608,15.5338435 54.1646448,15.0955826 53.6850768,14.5790609 C53.2062848,14.0641043 52.6980048,13.5182348 52.1637288,12.9402783 C51.9464488,12.7035391 51.7241248,12.4593652 51.5049048,12.2214522 C51.1859688,11.8755391 50.8701368,11.5319739 50.5492608,11.1805826 C50.0064488,10.5873652 49.4970048,10.0293652 49.0220928,9.51049565 L48.8343008,9.51049565 C48.8498208,9.77814783 48.8595208,10.1831478 48.8645648,10.7270609 C48.8668928,11.157887 48.8680568,11.6587565 48.8696088,12.2214522 C48.8707728,12.3681913 48.8707728,12.5188435 48.8707728,12.6749739 C48.8707728,12.9344087 48.8657288,13.2294522 48.8568048,13.559713 C48.8498208,13.8895826 48.8405088,14.2276696 48.8280928,14.5743652 C48.8176168,14.9202783 48.8005448,15.2673652 48.7811448,15.6132783 C48.7625208,15.9591913 48.7442848,16.2796696 48.7283768,16.574713 C48.7132448,16.8709304 48.6961728,17.1252783 48.6756088,17.3373652 C48.6573728,17.5482783 48.6387488,17.6938435 48.6240048,17.772887 C48.7559248,17.7564522 48.8994848,17.7494087 49.0566248,17.7494087 C49.2044528,17.7494087 49.3406408,17.7564522 49.4659648,17.772887 C49.4593688,17.7091043 49.4512208,17.5909304 49.4430728,17.4121043 C49.4341488,17.2352348 49.4271648,17.0294087 49.4201808,16.7926696 C49.4112568,16.5571043 49.4031088,16.3000174 49.3972888,16.0264957 C49.3887528,15.7514087 49.3813808,15.4790609 49.3790528,15.2114087 C49.3755608,14.9453217 49.3709048,14.6886261 49.3674128,14.4452348 C49.3627568,14.2014522 49.3608168,13.9968 49.3608168,13.8293217 C49.3608168,13.1934522 49.3658608,12.6890609 49.3720688,12.3208435 C49.3728448,12.2856261 49.3728448,12.254713 49.3755608,12.2214522 C49.3813808,11.8994087 49.3899168,11.6341043 49.3972888,11.4349304 C49.6401768,11.6943652 49.8838408,11.9584957 50.1271168,12.2214522 C50.8980728,13.047887 51.6686408,13.875887 52.4392088,14.7093652 C53.4530528,15.8085391 54.4086968,16.8803217 55.3057528,17.9270609 L55.4691008,17.9270609 L55.4691008,17.5365391 C55.4691008,17.3479304 55.4679368,17.1264522 55.4644448,16.8709304 C55.4609528,16.6161913 55.4574608,16.3387565 55.4528048,16.0441043 C55.4493128,15.7494522 55.4450448,15.4567565 55.4415528,15.1652348 C55.4368968,14.8729304 55.4357328,14.5943217 55.4357328,14.325887 L55.4357328,13.6176261 C55.4357328,13.3902783 55.4427168,13.0874087 55.4586248,12.7082348 C55.4656088,12.5493652 55.4737568,12.3826696 55.4815168,12.2214522 C55.4908288,11.9991913 55.4997528,11.7808435 55.5113928,11.5523217 C55.5307928,11.1606261 55.5501928,10.7884957 55.5703688,10.4425826 C55.5893808,10.0966696 55.6076168,9.83606087 55.6219728,9.66349565 C55.4671608,9.70223478 55.3418368,9.72375652 55.2483288,9.72375652" id="Fill-16" fill="#FEFEFE"></path>
                            <path d="M64.9695524,12.2213739 C64.9478244,12.1278522 64.9357964,12.0257217 64.9098004,11.936113 C64.7662404,11.4524609 64.5380964,11.0419826 64.2249804,10.7089826 C63.9126404,10.3740261 63.5133884,10.1169391 63.0248964,9.93693913 C62.5379564,9.7542 61.9509124,9.66341739 61.2633764,9.66341739 C60.9677204,9.66341739 60.6728404,9.67398261 60.3799004,9.69393913 C60.0873484,9.71311304 59.7928564,9.72367826 59.4956484,9.72367826 C59.2003804,9.72367826 58.9055004,9.71702609 58.6133364,9.70450435 C58.3203964,9.69393913 58.0255164,9.68024348 57.7294724,9.66341739 C57.7523644,10.182287 57.7744804,10.695287 57.7931044,11.1922435 C57.8062964,11.5283739 57.8090124,11.8754609 57.8125044,12.2213739 C57.8144444,12.3896348 57.8225924,12.5508522 57.8225924,12.7210696 L57.8225924,14.7511565 C57.8225924,15.2708087 57.8125044,15.7826348 57.7931044,16.2858522 C57.7744804,16.7890696 57.7523644,17.2852435 57.7294724,17.7732 C57.9937004,17.7567652 58.2563764,17.7481565 58.5132324,17.7481565 L59.2977684,17.7481565 C59.5619964,17.7481565 59.8242844,17.7532435 60.0815284,17.7610696 C60.3387724,17.7696783 60.5998964,17.7732 60.8652884,17.7732 C61.3262324,17.7732 61.8081284,17.7047217 62.3109764,17.5669826 C62.8146004,17.4300261 63.2739924,17.1952435 63.6910924,16.8634174 C64.1112964,16.5335478 64.4535124,16.0995913 64.7216204,15.5595913 C64.9912804,15.0207652 65.1266924,14.3575043 65.1266924,13.5713739 C65.1266924,13.0775478 65.0657764,12.6349826 64.9695524,12.2213739 M63.6577244,15.4766348 C63.4423844,15.969287 63.1645764,16.3578522 62.8254644,16.6399826 C62.4867404,16.9228957 62.1030084,17.1169826 61.6734924,17.2179391 C61.2439764,17.3208522 60.8148484,17.3717217 60.3857204,17.3717217 C60.0896764,17.3717217 59.8006164,17.3611565 59.5197044,17.3419826 C59.2384044,17.3232 59.0172444,17.2934609 58.8527324,17.2543304 C58.8057844,16.436113 58.7828924,15.6014609 58.7828924,14.7511565 L58.7828924,12.7210696 C58.7828924,12.5516348 58.7875484,12.3884609 58.7887124,12.2213739 C58.7922044,11.9682 58.7937564,11.712287 58.7999644,11.4645913 C58.8116044,11.0513739 58.8298404,10.6557652 58.8527324,10.2777652 C59.0940684,10.2472435 59.3672204,10.2190696 59.6729644,10.1959826 C59.9771564,10.1717217 60.3042404,10.1592 60.6553804,10.1592 C61.1396044,10.1592 61.5834764,10.2088957 61.9897124,10.3063304 C62.3947844,10.4057217 62.7435964,10.5825913 63.0373124,10.8369391 C63.3290884,11.0940261 63.5603364,11.4434609 63.7271764,11.8828957 C63.7671404,11.9881565 63.8016724,12.1004609 63.8323244,12.2213739 C63.9289364,12.6017217 63.9782124,13.0489826 63.9782124,13.5713739 C63.9782124,14.3504609 63.8726764,14.9851565 63.6577244,15.4766348" id="Fill-18" fill="#FEFEFE"></path>
                            <path d="M80.0920852,17.1004696 C79.5077572,17.1799043 78.9618412,17.2233391 78.4543372,17.2366435 C77.9472212,17.2483826 77.4164372,17.2546435 76.8612092,17.2546435 C76.8538372,16.6802087 76.8468532,16.027513 76.8394812,15.2989043 C76.8313332,14.5722522 76.8274532,13.7125565 76.8274532,12.7198174 C76.8274532,12.5515565 76.8344372,12.3895565 76.8356012,12.2212957 C76.8406452,11.8765565 76.8429732,11.528687 76.8550012,11.1921652 C76.8755652,10.6936435 76.8976812,10.1829913 76.9217372,9.66333913 C76.8193052,9.68016522 76.7219172,9.69386087 76.6291852,9.7059913 C76.5337372,9.71694783 76.4413932,9.7236 76.3478852,9.7236 C76.2528252,9.7236 76.1589292,9.71694783 76.0665852,9.7059913 C75.9726892,9.69386087 75.8753012,9.68016522 75.7732572,9.66333913 C75.7973132,10.1829913 75.8190412,10.6936435 75.8376652,11.1921652 C75.8512452,11.528687 75.8535732,11.8765565 75.8582292,12.2212957 C75.8605572,12.3895565 75.8683172,12.5515565 75.8683172,12.7198174 L75.8683172,14.7518609 C75.8683172,15.2707304 75.8582292,15.7837304 75.8376652,16.2857739 C75.8190412,16.7889913 75.7973132,17.2855565 75.7732572,17.7719478 C76.1480652,17.7578609 76.5100692,17.7492522 76.8550012,17.7492522 L77.9394612,17.7492522 L79.0146092,17.7492522 C79.3742852,17.7492522 79.7339612,17.7578609 80.0920852,17.7719478 C80.0536732,17.647513 80.0346612,17.5410783 80.0346612,17.4546 C80.0346612,17.3599043 80.0536732,17.2413391 80.0920852,17.1004696" id="Fill-20" fill="#FEFEFE"></path>
                            <path d="M82.6800064,14.7511174 L82.6800064,12.7214217 C82.6800064,12.5515957 82.6858264,12.3884217 82.6881544,12.2213348 C82.6928104,11.8754217 82.6955264,11.5287261 82.7075544,11.1922043 C82.7273424,10.6936826 82.7494584,10.1830304 82.7735144,9.66337826 C82.6714704,9.68098696 82.5736944,9.6939 82.4801864,9.70485652 C82.3866784,9.71776957 82.2923944,9.72481304 82.1996624,9.72481304 C82.1053784,9.72481304 82.0122584,9.71776957 81.9187504,9.70485652 C81.8256304,9.6939 81.7278544,9.68098696 81.6265864,9.66337826 C81.6490904,10.1830304 81.6708184,10.6936826 81.6902184,11.1922043 C81.7034104,11.5287261 81.7061264,11.8754217 81.7096184,12.2213348 C81.7119464,12.3884217 81.7189304,12.5515957 81.7189304,12.7214217 L81.7189304,14.7511174 C81.7189304,15.2695957 81.7096184,15.7837696 81.6902184,16.286987 C81.6708184,16.7890304 81.6490904,17.2855957 81.6265864,17.7731609 C81.8046784,17.7579 81.9967384,17.7481174 82.1996624,17.7481174 C82.4018104,17.7481174 82.5930944,17.7579 82.7735144,17.7731609 C82.7494584,17.2855957 82.7273424,16.7890304 82.7075544,16.286987 C82.6881544,15.7837696 82.6800064,15.2695957 82.6800064,14.7511174" id="Fill-22" fill="#FEFEFE"></path>
                            <path d="M88.875862,14.2677 C88.693114,14.0082652 88.46497,13.7950043 88.190654,13.6294826 C87.91789,13.4647435 87.624174,13.3250478 87.307178,13.2115696 C86.992122,13.0980913 86.697242,12.966613 86.42409,12.8206565 C86.151326,12.6762652 85.922794,12.4962652 85.740046,12.2830043 C85.72181,12.2650043 85.711334,12.2427 85.695426,12.2203957 C85.544106,12.0153522 85.46379,11.7477 85.46379,11.4111783 C85.46379,11.1979174 85.502202,11.0014826 85.575922,10.8214826 C85.649642,10.6395261 85.75479,10.4841783 85.891754,10.3538739 C86.029106,10.2259174 86.188574,10.1249609 86.371322,10.0541348 C86.554458,9.9833087 86.756606,9.94613478 86.973886,9.94613478 C87.191554,9.94613478 87.38051,9.98448261 87.536874,10.0588304 C87.69285,10.1351348 87.827486,10.2270913 87.939618,10.3374391 C88.053302,10.4473957 88.142542,10.5683087 88.210054,10.6958739 C88.27485,10.8273522 88.327618,10.9459174 88.366418,11.0558739 L88.508426,11.0558739 C88.553434,10.8297 88.60077,10.6395261 88.647718,10.4900478 C88.69583,10.3405696 88.753254,10.1989174 88.824258,10.0662652 C88.589906,9.87648261 88.336154,9.73678696 88.06339,9.64678696 C87.789074,9.55678696 87.465482,9.51217826 87.090286,9.51217826 C86.700734,9.51217826 86.349594,9.56617826 86.037254,9.67535217 C85.726078,9.7857 85.458746,9.93948261 85.235258,10.1359174 C85.01371,10.3323522 84.844154,10.5683087 84.728142,10.8379174 C84.610966,11.1094826 84.552378,11.4111783 84.552378,11.7430043 C84.552378,11.9155696 84.568674,12.0732652 84.595058,12.2203957 C84.63735,12.4669174 84.71301,12.678613 84.826306,12.8503957 C85.010218,13.1262652 85.23875,13.3532217 85.511902,13.5289174 C85.784666,13.7077435 86.079546,13.8552652 86.394214,13.9714826 C86.711598,14.0888739 87.005314,14.2203522 87.27963,14.3623957 C87.550842,14.5024826 87.779762,14.6801348 87.964838,14.8930043 C88.146034,15.1050913 88.237602,15.3927 88.237602,15.7554391 C88.237602,15.990613 88.198802,16.2136565 88.120814,16.4206565 C88.042826,16.6303957 87.93341,16.8103957 87.78791,16.9645696 C87.643574,17.116787 87.468198,17.241613 87.261394,17.3300478 C87.05459,17.4204391 86.822178,17.466613 86.564934,17.466613 C86.314674,17.466613 86.088858,17.4298304 85.885934,17.3539174 C85.682622,17.2780043 85.505694,17.1821348 85.35321,17.0647435 C85.201502,16.9477435 85.071134,16.8150913 84.966762,16.6695261 C84.861226,16.5239609 84.778194,16.3807435 84.715338,16.2394826 L84.57527,16.2394826 C84.552378,16.4668304 84.525994,16.6542652 84.49961,16.7998304 C84.471286,16.9453957 84.422786,17.1089609 84.35411,17.2889609 C84.55587,17.4548739 84.807294,17.601613 85.107994,17.7319174 C85.408306,17.8622217 85.798634,17.9271783 86.283634,17.9271783 C86.735654,17.9271783 87.139562,17.8622217 87.495358,17.7319174 C87.850378,17.601613 88.149526,17.4180913 88.396294,17.1762652 C88.64151,16.936787 88.828914,16.6554391 88.958118,16.3330043 C89.086934,16.009787 89.151342,15.6673957 89.151342,15.3062217 C89.151342,14.8742217 89.058998,14.5271348 88.875862,14.2677" id="Fill-24" fill="#FEFEFE"></path>
                            <path d="M94.728454,14.2677 C94.543766,14.0082652 94.316786,13.7950043 94.043634,13.6294826 C93.77087,13.4647435 93.476378,13.3250478 93.160158,13.2115696 C92.843938,13.0980913 92.548282,12.966613 92.276682,12.8206565 C92.00353,12.6762652 91.775386,12.4962652 91.590698,12.2830043 C91.575566,12.2650043 91.56315,12.2427 91.548018,12.2203957 C91.39631,12.0153522 91.31677,11.7477 91.31677,11.4111783 C91.31677,11.1979174 91.354406,11.0014826 91.427738,10.8214826 C91.502234,10.6395261 91.60777,10.4841783 91.745122,10.3538739 C91.880922,10.2259174 92.04039,10.1249609 92.223526,10.0541348 C92.406274,9.9833087 92.608422,9.94613478 92.82609,9.94613478 C93.044534,9.94613478 93.232326,9.98448261 93.387526,10.0588304 C93.544666,10.1351348 93.678526,10.2270913 93.792598,10.3374391 C93.905894,10.4473957 93.994358,10.5683087 94.06187,10.6958739 C94.128218,10.8273522 94.179822,10.9459174 94.218234,11.0558739 L94.360242,11.0558739 C94.40719,10.8297 94.452974,10.6395261 94.499922,10.4900478 C94.547646,10.3405696 94.605846,10.1989174 94.67685,10.0662652 C94.441722,9.87648261 94.18797,9.73678696 93.915206,9.64678696 C93.64089,9.55678696 93.31885,9.51217826 92.942102,9.51217826 C92.553326,9.51217826 92.20335,9.56617826 91.88907,9.67535217 C91.577894,9.7857 91.310562,9.93948261 91.087074,10.1359174 C90.865526,10.3323522 90.696358,10.5683087 90.579958,10.8379174 C90.462782,11.1094826 90.404194,11.4111783 90.404194,11.7430043 C90.404194,11.9155696 90.421266,12.0732652 90.44765,12.2203957 C90.491106,12.4669174 90.565214,12.678613 90.678122,12.8503957 C90.862034,13.1262652 91.089402,13.3532217 91.363718,13.5289174 C91.636482,13.7077435 91.931362,13.8552652 92.24797,13.9714826 C92.563802,14.0888739 92.85713,14.2203522 93.131446,14.3623957 C93.403434,14.5024826 93.631578,14.6801348 93.81549,14.8930043 C93.99979,15.1050913 94.09097,15.3927 94.09097,15.7554391 C94.09097,15.990613 94.051394,16.2136565 93.97263,16.4206565 C93.894642,16.6303957 93.784062,16.8103957 93.639726,16.9645696 C93.49539,17.116787 93.320014,17.241613 93.11321,17.3300478 C92.906406,17.4204391 92.673606,17.466613 92.41675,17.466613 C92.166878,17.466613 91.93951,17.4298304 91.73775,17.3539174 C91.534438,17.2780043 91.356734,17.1821348 91.205026,17.0647435 C91.053706,16.9477435 90.923726,16.8150913 90.819354,16.6695261 C90.713042,16.5239609 90.63001,16.3807435 90.56793,16.2394826 L90.427086,16.2394826 C90.404194,16.4668304 90.37781,16.6542652 90.351426,16.7998304 C90.325042,16.9453957 90.274214,17.1089609 90.205926,17.2889609 C90.407686,17.4548739 90.65911,17.601613 90.95981,17.7319174 C91.260122,17.8622217 91.65239,17.9271783 92.13545,17.9271783 C92.58747,17.9271783 92.991766,17.8622217 93.346786,17.7319174 C93.70297,17.601613 94.003282,17.4180913 94.248886,17.1762652 C94.494878,16.936787 94.681506,16.6554391 94.811098,16.3330043 C94.93875,16.009787 95.003934,15.6673957 95.003934,15.3062217 C95.003934,14.8742217 94.911202,14.5271348 94.728454,14.2677" id="Fill-26" fill="#FEFEFE"></path>
                            <path d="M31.9649144,7.72215652 C32.0242784,8.63193913 32.0254424,9.89898261 31.9649144,10.8087652 C31.8120424,10.8369391 31.8438584,10.5328957 31.8221304,10.4499391 C31.3161784,8.46133043 29.1119504,7.61141739 27.4334624,7.7745913 C25.5854184,7.95341739 23.8425224,9.94985217 24.0799784,13.2775043 C24.0854104,13.3549826 24.1051984,13.466113 24.1145104,13.5345913 C24.5607104,16.4455043 26.2380344,17.9993739 29.0033104,17.8569391 C26.4184544,18.3973304 23.6970224,17.2046348 22.8663144,14.7190696 C22.2579304,12.8963739 22.7487504,10.8764609 23.5084544,9.7808087 C24.7360864,8.0085913 27.5448184,6.81667826 29.9306304,7.9272 C30.4881864,8.18898261 31.2928984,8.85341739 31.7522904,8.18546087 C31.8364864,8.06102609 31.8073864,7.81685217 31.9649144,7.72215652" id="Fill-28" fill="#FEFEFE"></path>
                            <path d="M30.1817828,17.5483174 C30.9011348,16.9914913 31.5553028,15.9897522 31.5731508,14.6174478 C31.5972068,12.7196217 30.4297148,11.2052739 29.0034268,11.4279261 C28.0093708,11.5809261 27.2880788,12.6953609 27.1134788,14.0512304 C27.0525628,12.8984478 27.5127308,11.9929696 28.0047148,11.4279261 C29.5710708,9.62792609 32.7549988,10.7838391 32.7860388,13.999187 C32.8058268,16.141187 31.5343508,17.2736217 30.1817828,17.5483174" id="Fill-30" fill="#FEFEFE"></path>
                            <path d="M67.1382008,7.75807826 C67.0994008,8.22333913 67.0982368,8.87251304 67.1382008,9.3362087 C67.2379168,9.35186087 67.2177408,9.19573043 67.2320968,9.15268696 C67.5638368,8.13568696 69.0052568,7.70212174 70.1044608,7.78390435 C71.3146328,7.87507826 72.4565168,8.89716522 72.3001528,10.6024696 C72.2966608,10.6416 72.2842448,10.6983391 72.2760968,10.7339478 C71.9850968,12.2212957 70.8878328,13.0183826 69.0762608,12.9452087 C70.7706568,13.2218609 72.5504128,12.6110348 73.0940008,11.3389043 C73.4932528,10.4060348 73.1719888,9.3722087 72.6741848,8.81068696 C71.8710248,7.90481739 70.0319048,7.29477391 68.4705928,7.86333913 C68.1054848,7.9956 67.5766408,8.33603478 67.2774928,7.99364348 C67.2220088,7.93064348 67.2417968,7.8066 67.1382008,7.75807826" id="Fill-32" fill="#FEFEFE"></path>
                            <path d="M68.3065852,12.7877087 C67.8340012,12.5020565 67.4060372,11.9906217 67.3955612,11.2858826 C67.3796532,10.3146652 68.1440132,9.5387087 69.0763772,9.65414348 C69.7278292,9.73318696 70.2008012,10.3017522 70.3144852,10.9955348 C70.3544492,10.4085783 70.0525852,9.94331739 69.7317092,9.65414348 C68.7058372,8.73262174 66.6222772,9.3234913 66.6017132,10.9708826 C66.5881332,12.0661435 67.4219452,12.6464478 68.3065852,12.7877087" id="Fill-34" fill="#FEFEFE"></path>
                            <path d="M67.16474,17.815813 C67.123612,17.3517261 67.122448,16.7013783 67.16474,16.2372913 C67.269112,16.2232043 67.247384,16.3781609 67.263292,16.420813 C67.610164,17.437813 69.123364,17.8729435 70.275336,17.7911609 C71.544872,17.6984217 72.738748,16.6767261 72.578116,14.9733783 C72.572684,14.9334652 72.55988,14.8763348 72.552896,14.8411174 C72.246764,13.3525957 71.096732,12.5566826 69.19786,12.6310304 C70.972572,12.352813 72.839628,12.9628565 73.408824,14.2361609 C73.82864,15.1674652 73.491468,16.2028565 72.969608,16.7632043 C72.126096,17.6679 70.199676,18.2802913 68.560376,17.7101609 C68.178196,17.5779 67.626072,17.2390304 67.310628,17.5810304 C67.25204,17.6428565 67.272604,17.7672913 67.16474,17.815813" id="Fill-36" fill="#FEFEFE"></path>
                            <path d="M68.3895396,12.7877087 C67.8940636,13.0717957 67.4459236,13.5832304 67.4323436,14.2879696 C67.4175996,15.2599696 68.2188196,16.0347522 69.1981316,15.9208826 C69.8794596,15.8418391 70.3749356,15.2721 70.4948276,14.5779261 C70.5371196,15.1676217 70.2193476,15.6309261 69.8833396,15.9208826 C68.8093556,16.8408391 66.6233636,16.249187 66.6016356,14.6053174 C66.5880556,13.5077087 67.4602796,12.9274043 68.3895396,12.7877087" id="Fill-38" fill="#FEFEFE"></path>
                            <polygon id="Fill-40" fill="#FEFEFE" points="48.4524312 2.47738696 49.3203872 3.91304348e-05 48.8427592 2.58382174 50.8242752 0.876169565 49.1306552 2.87416957 51.6930072 2.39325652 49.2350272 3.26821304 51.6930072 4.14395217 49.1306552 3.66264783 50.8242752 5.66103913 48.8427592 3.95182174 49.3203872 6.53677826 48.4524312 4.05708261 47.5829232 6.53677826 48.0589992 3.95182174 46.0798112 5.66103913 47.7745952 3.66264783 45.2114672 4.14395217 47.6682832 3.26821304 45.2114672 2.39325652 47.7745952 2.87416957 46.0798112 0.876169565 48.0589992 2.58382174 47.5829232 3.91304348e-05"></polygon>
                        </g>
                    </g>
                </g>
            </g>
        </g>
    </g>
</svg>