<?xml version="1.0" encoding="UTF-8"?>
<svg width="103px" height="17px" viewBox="0 0 103 17" version="1.1" xmlns="http://www.w3.org/2000/svg" xmlns:xlink="http://www.w3.org/1999/xlink">
    <!-- Generator: Sketch 45.1 (43504) - http://www.bohemiancoding.com/sketch -->
    <title>Mayan Palace Logo</title>
    <desc>Created with Sketch.</desc>
    <defs>
        <polygon id="path-1" points="1.76796935 2.02198696 1.76796935 0.35816087 0.0917528736 0.35816087 0.0917528736 2.02198696 1.76796935 2.02198696"></polygon>
    </defs>
    <g id="01-Homepage" stroke="none" stroke-width="1" fill="none" fill-rule="evenodd">
        <g id="Homapage-Desktop-Full-B" transform="translate(-864.000000, -2762.000000)">
            <g id="Footer" transform="translate(0.000000, 2353.000000)">
                <g id="Logos-Footer" transform="translate(131.000000, 398.000000)">
                    <g id="Mayan-Palace-Logo" transform="translate(733.000000, 11.000000)">
                        <g id="Page-1">
                            <polygon id="Fill-8" fill="#FEFEFE" points="43.9502973 14.4576391 43.5154084 16.0717696 43.9763433 16.0717696 44.3851862 14.4185087"></polygon>
                            <polygon id="Fill-9" fill="#FEFEFE" points="45.736933 14.3262 45.3391398 16.0459826 45.830067 16.0459826 46.2002356 14.2870696"></polygon>
                            <polygon id="Fill-10" fill="#FEFEFE" points="42.7918038 13.3670348 42.55739 14.3002957 43.832459 14.2056 44.1106774 13.1776435"></polygon>
                            <polygon id="Fill-11" fill="#FEFEFE" points="44.3302923 13.1560826 44.0414188 14.186387 44.4798594 14.1558652 44.7434762 13.105213"></polygon>
                            <polygon id="Fill-12" fill="#FEFEFE" points="46.0668487 12.9050217 45.8024425 13.9967609 46.2673238 13.9576304 46.4954234 12.8541522"></polygon>
                            <polygon id="Fill-13" fill="#FEFEFE" points="48.0800843 11.2519174 51.486977 12.1190478 51.486977 13.3003957 48.0800843 12.4348304"></polygon>
                            <polygon id="Fill-14" fill="#FEFEFE" points="47.8581015 11.2385348 46.0952625 11.4756652 46.0952625 12.7368391 47.8581015 12.4480565"></polygon>
                            <polygon id="Fill-15" fill="#FEFEFE" points="44.8628931 12.9321783 43.1008433 13.1689174 43.1008433 11.8819174 44.8628931 11.6592652"></polygon>
                            <polygon id="Fill-18" fill="#FEFEFE" points="42.5051008 11.4674478 47.9751506 10.731013 51.7897023 11.7245348 51.3788862 10.2524478 48.0015912 9.09066522 43.154277 9.93001304"></polygon>
                            <polygon id="Fill-19" fill="#FEFEFE" points="44.9607628 9.441 47.1367858 9.04656522 47.4386824 1.99330435 45.9990502 2.38773913"></polygon>
                            <polygon id="Fill-20" fill="#FEFEFE" points="45.8039816 2.57024348 45.3801425 2.6625913 43.9886559 9.59767826 44.704131 9.47911304"></polygon>
                            <polygon id="Fill-21" fill="#FEFEFE" points="47.6315015 2.12466522 48.8753943 1.82296957 49.522992 2.16418696 50.9275015 9.8994913 48.0012755 8.91536087 47.3268425 9.00536087"></polygon>
                            <polygon id="Fill-22" fill="#FEFEFE" points="52.1073843 13.6559348 48.0540778 12.6303261 46.7044226 12.8283261 46.4925031 13.9188913 48.1203766 13.7862391 52.4519015 14.6944565"></polygon>
                            <g id="Group-54" transform="translate(0.000000, 0.082917)">
                                <path d="M53.8393234,16.1558217 C54.7604038,14.4289957 55.1799019,12.6919957 55.1799019,10.4478652 C55.1799019,4.85103913 51.6064728,0.308386957 47.2082544,0.308386957 C42.7966184,0.308386957 39.2208215,4.85103913 39.2208215,10.4478652 C39.2208215,12.4016478 39.7973847,14.6070391 40.552718,16.1558217 L40.7638483,16.1558217 C39.9832582,14.6070391 39.3786759,12.3910826 39.3786759,10.4083435 C39.3786759,4.91716957 42.8759402,0.465691304 47.2082544,0.465691304 C51.5129441,0.465691304 55.0216529,4.91716957 55.0216529,10.4083435 C55.0216529,12.5225609 54.5516414,14.5405174 53.6613425,16.1558217 L53.8393234,16.1558217 Z" id="Fill-23" fill="#FEFEFE"></path>
                                <polygon id="Fill-25" fill="#FEFEFE" points="41.0506303 16.1558217 42.0680019 14.5017783 43.7282356 14.3984739 43.2590134 16.1558217"></polygon>
                                <polygon id="Fill-27" fill="#FEFEFE" points="46.0190582 16.1558217 46.4275065 14.1437348 48.1141808 14.0157783 52.8849356 14.9298652 53.3853341 16.1558217"></polygon>
                                <path d="M0,15.9437739 C0.285321839,15.9081652 0.391478927,15.8017304 0.391478927,15.5376 L0.391478927,7.5819913 C0.391478927,7.28068696 0.320444444,7.1402087 0,7.01733913 L0,6.85807826 L2.68628736,6.85807826 L2.68628736,7.01733913 C2.36623755,7.0689913 2.22298467,7.26464348 2.22298467,7.44112174 C2.22298467,7.49394783 2.22298467,7.54755652 2.24232184,7.5819913 L4.48345977,13.3146 L6.58252874,7.5819913 C6.6018659,7.51077391 6.62001916,7.40551304 6.62001916,7.33312174 C6.62001916,7.15781739 6.51070498,7.08816522 6.22617241,7.01733913 L6.22617241,6.85807826 L8.89706897,6.85807826 L8.89706897,7.01733913 C8.59319923,7.1226 8.48625287,7.26464348 8.48625287,7.5819913 L8.48625287,15.5376 C8.48625287,15.8017304 8.62950575,15.9249913 8.93021839,15.9437739 L8.93021839,16.1190783 L6.8319387,16.1190783 L6.8319387,15.9437739 C7.15198851,15.9081652 7.26051341,15.8185565 7.26051341,15.5376 L7.26051341,8.3919913 L4.5375249,15.9973826 L4.41124138,15.9973826 L1.54855172,8.5172087 L1.54855172,15.5376 C1.54855172,15.8017304 1.67167816,15.9081652 1.99330651,15.9437739 L1.99330651,16.1190783 L0,16.1190783 L0,15.9437739 Z" id="Fill-29" fill="#FEFEFE"></path>
                                <path d="M9.90986284,15.9082043 C10.2105755,15.836987 10.3538284,15.6785087 10.461564,15.3787696 L12.4339548,9.25759565 C12.4895985,9.09755217 12.5057785,8.97585652 12.5057785,8.93907391 C12.5057785,8.83381304 12.4008054,8.74459565 12.1861234,8.72816087 L12.1861234,8.51724783 L14.62379,8.51724783 L14.62379,8.72816087 C14.4288398,8.74459565 14.3242613,8.83381304 14.3242613,9.00872609 C14.3242613,9.06468261 14.3404414,9.15076957 14.3763533,9.25759565 L16.4762115,15.3787696 C16.58079,15.6785087 16.6526138,15.8561609 16.9730582,15.9082043 L16.9730582,16.1191174 L15.0156636,16.1191174 L15.0156636,15.9082043 C15.2291617,15.8714217 15.3005908,15.7853348 15.3005908,15.6252913 C15.3005908,15.5544652 15.3005908,15.4664217 15.2650736,15.3787696 L14.8017709,13.9673348 L11.9899893,13.9673348 L11.5101119,15.3787696 C11.4745946,15.4855957 11.4576253,15.5544652 11.4576253,15.6084652 C11.4576253,15.7853348 11.581541,15.8714217 11.7950391,15.9082043 L11.7950391,16.1191174 L9.90986284,16.1191174 L9.90986284,15.9082043 Z M14.4619893,12.9961174 L13.3613494,9.69820435 L12.293859,12.9961174 L14.4619893,12.9961174 Z" id="Fill-31" fill="#FEFEFE"></path>
                                <path d="M18.8122989,15.9082043 C19.1682605,15.8017696 19.2053563,15.7141174 19.2053563,15.3952043 L19.2053563,12.5746826 L16.999341,9.04433478 C16.8738467,8.85142174 16.7665057,8.76337826 16.4831571,8.72816087 L16.4831571,8.51724783 L18.7412644,8.51724783 L18.7412644,8.72816087 C18.458705,8.74459565 18.3497854,8.76337826 18.3497854,8.95668261 C18.3497854,8.9922913 18.3675441,9.04433478 18.4062184,9.09755217 L19.9168851,11.5146391 L21.3750651,9.13394348 C21.4097931,9.08111739 21.4275517,9.0279 21.4275517,8.95668261 C21.4275517,8.79781304 21.3225785,8.76337826 21.0013448,8.72816087 L21.0013448,8.51724783 L23.1896015,8.51724783 L23.1896015,8.72816087 C22.870341,8.74459565 22.707751,8.83381304 22.5676552,9.08111739 L20.4149157,12.5746826 L20.4149157,15.3952043 C20.4149157,15.6785087 20.5558008,15.8182043 20.8592759,15.9082043 L20.8592759,16.1191174 L18.8122989,16.1191174 L18.8122989,15.9082043 Z" id="Fill-33" fill="#FEFEFE"></path>
                                <path d="M22.5744429,15.9082043 C22.8775234,15.836987 23.019987,15.6785087 23.1269333,15.3787696 L25.0993241,9.25759565 C25.1541785,9.09755217 25.1719372,8.97585652 25.1719372,8.93907391 C25.1719372,8.83381304 25.0653854,8.74459565 24.8518874,8.72816087 L24.8518874,8.51724783 L27.2891594,8.51724783 L27.2891594,8.72816087 C27.0934199,8.74459565 26.9872628,8.83381304 26.9872628,9.00872609 C26.9872628,9.06468261 27.0058107,9.15076957 27.0409333,9.25759565 L29.1400023,15.3787696 C29.2453701,15.6785087 29.3171939,15.8561609 29.6384276,15.9082043 L29.6384276,16.1191174 L27.6814276,16.1191174 L27.6814276,15.9082043 C27.8937418,15.8714217 27.9651709,15.7853348 27.9651709,15.6252913 C27.9651709,15.5544652 27.9651709,15.4664217 27.9320215,15.3787696 L27.4671402,13.9673348 L24.6569372,13.9673348 L24.174692,15.3787696 C24.1415425,15.4855957 24.1222054,15.5544652 24.1222054,15.6084652 C24.1222054,15.7853348 24.2461211,15.8714217 24.4604084,15.9082043 L24.4604084,16.1191174 L22.5744429,16.1191174 L22.5744429,15.9082043 Z M27.1297264,12.9961174 L26.0259295,9.69820435 L24.9592284,12.9961174 L27.1297264,12.9961174 Z" id="Fill-35" fill="#FEFEFE"></path>
                                <path d="M30.5449854,15.9437739 C30.8310966,15.9081652 30.9534337,15.7852957 30.9534337,15.5188174 L30.9534337,9.09751304 C30.9534337,8.83377391 30.8125487,8.71168696 30.5094682,8.69251304 L30.5094682,8.5172087 L33.0892038,8.5172087 L33.0892038,8.69251304 C32.7880966,8.74494783 32.644449,8.8869913 32.644449,9.06307826 C32.644449,9.11668696 32.6629969,9.18633913 32.6977249,9.23955652 L35.4562307,13.6323391 L35.4562307,9.09751304 C35.4562307,8.83377391 35.3145563,8.72851304 35.0122651,8.69251304 L35.0122651,8.5172087 L36.932564,8.5172087 L36.932564,8.69251304 C36.6480314,8.72851304 36.5237211,8.85138261 36.5237211,9.11668696 L36.5237211,15.5376 C36.5237211,15.8017304 36.6673686,15.9249913 36.9684759,15.9437739 L36.9684759,16.1190783 L35.0284452,16.1190783 L35.0284452,15.9437739 C35.2604912,15.9081652 35.3670429,15.8561217 35.3670429,15.6960783 C35.3670429,15.6620348 35.3670429,15.6264261 35.3492843,15.5720348 L32.0240812,10.2804261 L32.0240812,15.5376 C32.0240812,15.8017304 32.1460238,15.9081652 32.4487096,15.9437739 L32.4487096,16.1190783 L30.5449854,16.1190783 L30.5449854,15.9437739 Z" id="Fill-37" fill="#FEFEFE"></path>
                                <path d="M63.7083019,10.7188435 C63.7083019,12.0598435 62.7134245,12.9418435 61.20039,12.9418435 L59.4730682,12.9418435 L59.4730682,15.4465826 C59.4730682,15.7819304 59.5460759,15.8703652 59.8838843,15.9591913 L59.8838843,16.1701043 L57.8380912,16.1701043 L57.8380912,15.9591913 C58.1751103,15.8703652 58.2465395,15.7819304 58.2465395,15.4465826 L58.2465395,9.29097391 C58.2465395,8.95445217 58.1751103,8.86562609 57.8380912,8.7768 L57.8380912,8.56588696 L61.1108077,8.56588696 C62.7655165,8.56588696 63.7083019,9.41384348 63.7083019,10.7188435 L63.7083019,10.7188435 Z M60.9505854,11.9526261 C61.9648,11.9526261 62.4628307,11.5656261 62.4628307,10.7720609 C62.4628307,9.92449565 61.930072,9.55471304 60.8262751,9.55471304 L59.4730682,9.55471304 L59.4730682,11.9526261 L60.9505854,11.9526261 Z" id="Fill-39" fill="#FEFEFE"></path>
                                <path d="M63.8647751,15.9579 C64.1678556,15.8882478 64.3087406,15.7293783 64.4164762,15.4296391 L66.3904456,9.30846522 C66.4453,9.14763913 66.4614801,9.02555217 66.4614801,8.98955217 C66.4614801,8.88468261 66.3557176,8.79546522 66.1410356,8.77785652 L66.1410356,8.56576957 L68.5794916,8.56576957 L68.5794916,8.77785652 C68.3837521,8.79546522 68.277595,8.88468261 68.277595,9.06076957 C68.277595,9.11437826 68.2961429,9.20046522 68.3304762,9.30846522 L70.4311238,15.4296391 C70.5364916,15.7293783 70.6091046,15.9058565 70.9279705,15.9579 L70.9279705,16.169987 L68.9705759,16.169987 L68.9705759,15.9579 C69.1840739,15.9250304 69.2555031,15.8346391 69.2555031,15.6773348 C69.2555031,15.6053348 69.2555031,15.5161174 69.2199858,15.4296391 L68.7566831,14.0170304 L65.9472693,14.0170304 L65.4666027,15.4296391 C65.4318747,15.5364652 65.4141161,15.6053348 65.4141161,15.6581609 C65.4141161,15.8346391 65.5364533,15.9250304 65.7515299,15.9579 L65.7515299,16.169987 L63.8647751,16.169987 L63.8647751,15.9579 Z M68.4200586,13.0481609 L67.3162617,9.7479 L66.2487713,13.0481609 L68.4200586,13.0481609 Z" id="Fill-41" fill="#FEFEFE"></path>
                                <path d="M71.8893038,15.9579 C72.2275069,15.8690739 72.3155107,15.782987 72.3155107,15.4476391 L72.3155107,9.2892913 C72.3155107,8.95511739 72.2275069,8.86668261 71.8893038,8.77785652 L71.8893038,8.56576957 L73.9520663,8.56576957 L73.9520663,8.77785652 C73.6150471,8.86668261 73.5432234,8.95511739 73.5432234,9.2892913 L73.5432234,15.1099435 L76.8546142,15.1099435 C77.0835031,15.1099435 77.2078134,14.9878565 77.2445146,14.7049435 L77.4572234,14.7049435 L77.4572234,16.5049435 L77.2445146,16.5049435 C77.1908441,16.2412043 77.1004724,16.169987 76.8360663,16.169987 L71.8893038,16.169987 L71.8893038,15.9579 Z" id="Fill-43" fill="#FEFEFE"></path>
                                <path d="M77.9961383,15.9579 C78.2988241,15.8882478 78.4416824,15.7293783 78.5478395,15.4296391 L80.5233874,9.30846522 C80.5766632,9.14763913 80.5952111,9.02555217 80.5952111,8.98955217 C80.5952111,8.88468261 80.4870808,8.79546522 80.2735828,8.77785652 L80.2735828,8.56576957 L82.7108548,8.56576957 L82.7108548,8.77785652 C82.5166939,8.79546522 82.4089582,8.88468261 82.4089582,9.06076957 C82.4089582,9.11437826 82.4275061,9.20046522 82.4610502,9.30846522 L84.562487,15.4296391 C84.6702226,15.7293783 84.7388893,15.9058565 85.060123,15.9579 L85.060123,16.169987 L83.103123,16.169987 L83.103123,15.9579 C83.3166211,15.9250304 83.3868663,15.8346391 83.3868663,15.6773348 C83.3868663,15.6053348 83.3868663,15.5161174 83.351349,15.4296391 L82.8880464,14.0170304 L80.0786326,14.0170304 L79.5987552,15.4296391 C79.5632379,15.5364652 79.5454793,15.6053348 79.5454793,15.6581609 C79.5454793,15.8346391 79.6701843,15.9250304 79.8828931,15.9579 L79.8828931,16.169987 L77.9961383,16.169987 L77.9961383,15.9579 Z M82.5514218,13.0481609 L81.4476249,9.7479 L80.3809238,13.0481609 L82.5514218,13.0481609 Z" id="Fill-45" fill="#FEFEFE"></path>
                                <path d="M92.2130586,15.3755217 C92.0512579,15.321913 91.9261582,15.2874783 91.8740663,15.2874783 C91.5540165,15.2874783 90.912733,16.3467391 89.2588134,16.3467391 C87.1944724,16.3467391 85.6991966,14.6883913 85.6991966,12.3769565 C85.6991966,10.0306957 87.2307789,8.37313043 89.276572,8.37313043 C90.611231,8.37313043 91.3389398,9.16630435 91.7497559,9.16630435 C91.8215797,9.16630435 91.9261582,9.13186957 92.0512579,9.07865217 L92.2130586,9.20230435 L91.0023153,10.7718261 L90.8416985,10.6481739 C90.8602464,10.5957391 90.8602464,10.5433043 90.8602464,10.4904783 C90.8602464,9.95947826 90.2004149,9.4316087 89.2588134,9.4316087 C87.9261276,9.4316087 86.9632157,10.6301739 86.9632157,12.3601304 C86.9632157,14.1237391 87.9067904,15.2874783 89.2943307,15.2874783 C90.2907866,15.2874783 90.9829782,14.6179565 90.9829782,14.1237391 C90.9829782,14.0689565 90.9498287,13.9652609 90.8949743,13.806 L91.0729552,13.6831304 L92.370913,15.2522609 L92.2130586,15.3755217 Z" id="Fill-47" fill="#FEFEFE"></path>
                                <path d="M100.290745,14.6353304 L100.484906,14.6353304 L100.484906,16.5229826 L100.290745,16.5229826 C100.253649,16.2764609 100.110396,16.1712 99.8645379,16.1712 L93.761492,16.1712 L93.761492,15.9579391 C94.0977218,15.870287 94.169151,15.7638522 94.169151,15.4465043 L94.169151,7.63176522 C94.169151,7.31285217 94.0977218,7.19115652 93.761492,7.10193913 L93.761492,6.90785217 L99.7903464,6.90785217 C100.039362,6.90785217 100.165251,6.78498261 100.199979,6.50206957 L100.397297,6.50206957 L100.397297,8.31928696 L100.199979,8.31928696 C100.147492,8.05437391 100.039362,7.96554783 99.7737716,7.96554783 L95.4856567,7.96554783 L95.4856567,10.8079826 L98.6530054,10.8079826 C98.8834728,10.8079826 99.008967,10.6831565 99.0452736,10.4014174 L99.2571931,10.4014174 L99.2571931,12.2178522 L99.0452736,12.2178522 C98.9896299,11.9529391 98.9020207,11.865287 98.6368253,11.865287 L95.4856567,11.865287 L95.4856567,15.0223304 L99.880718,15.0223304 C100.129733,15.0223304 100.253649,14.9182435 100.290745,14.6353304" id="Fill-49" fill="#FEFEFE"></path>
                                <g id="Group-53" transform="translate(101.026820, 6.260870)">
                                    <mask id="mask-2" fill="white">
                                        <use xlink:href="#path-1"></use>
                                    </mask>
                                    <g id="Clip-52"></g>
                                    <path d="M1.76816667,1.18576957 C1.76816667,1.41703043 1.68726628,1.61463913 1.52625479,1.77820435 C1.36208621,1.94020435 1.16634674,2.02198696 0.933511494,2.02198696 C0.700676245,2.02198696 0.503358238,1.94176957 0.337611111,1.78172609 C0.175021073,1.61933478 0.0917528736,1.42407391 0.0917528736,1.19085652 C0.0917528736,0.96116087 0.175021073,0.767073913 0.337611111,0.601943478 C0.503358238,0.439943478 0.700676245,0.35816087 0.933511494,0.35816087 C1.16634674,0.35816087 1.36208621,0.439943478 1.52625479,0.60116087 C1.68726628,0.760813043 1.76816667,0.956465217 1.76816667,1.18576957 L1.76816667,1.18576957 Z M1.6403046,1.19085652 C1.6403046,0.996378261 1.5724272,0.829682609 1.43351533,0.68763913 C1.29578736,0.545204348 1.12925096,0.475552174 0.93193295,0.475552174 C0.738561303,0.475552174 0.571235632,0.545204348 0.433113027,0.68763913 C0.292227969,0.829682609 0.222772031,0.996378261 0.222772031,1.19085652 C0.222772031,1.38494348 0.292227969,1.55203043 0.435480843,1.69407391 C0.57439272,1.83494348 0.741323755,1.90498696 0.93193295,1.90498696 C1.12925096,1.90498696 1.29578736,1.8372913 1.43351533,1.69642174 C1.5724272,1.55398696 1.6403046,1.38768261 1.6403046,1.19085652 L1.6403046,1.19085652 Z M1.32499042,1.63342174 L1.24487931,1.62520435 L1.16753065,1.63342174 L1.08071073,1.51759565 L0.796178161,1.19868261 L0.746059387,1.19868261 L0.746059387,1.63146522 L0.683706897,1.62520435 L0.62293295,1.63342174 L0.62293295,0.738117391 L0.91812069,0.738117391 C1.02664559,0.738117391 1.1067567,0.754552174 1.15687548,0.788204348 C1.20699425,0.821073913 1.23185632,0.869595652 1.23185632,0.934943478 C1.23185632,1.00459565 1.20225862,1.06172609 1.14227395,1.1079 C1.08978736,1.14898696 1.02269923,1.17676957 0.941798851,1.18733478 L1.32499042,1.63342174 Z M1.11149234,0.952552174 C1.11149234,0.907552174 1.09452299,0.872334783 1.06374138,0.846117391 C1.03295977,0.818726087 0.994285441,0.805813043 0.951270115,0.805813043 L0.746059387,0.805813043 L0.746059387,1.12785652 L0.896415709,1.12785652 C0.961136015,1.12785652 1.01204406,1.11181304 1.05150766,1.07933478 C1.09215517,1.04646522 1.11149234,1.00459565 1.11149234,0.952552174 L1.11149234,0.952552174 Z" id="Fill-51" fill="#FEFEFE" mask="url(#mask-2)"></path>
                                </g>
                            </g>
                        </g>
                    </g>
                </g>
            </g>
        </g>
    </g>
</svg>