<?xml version="1.0" encoding="UTF-8"?>
<svg width="89px" height="20px" viewBox="0 0 89 20" version="1.1" xmlns="http://www.w3.org/2000/svg" xmlns:xlink="http://www.w3.org/1999/xlink">
    <!-- Generator: Sketch 45.1 (43504) - http://www.bohemiancoding.com/sketch -->
    <title>Grand Luxxe Logo</title>
    <desc>Created with Sketch.</desc>
    <defs>
        <polygon id="path-1" points="0.142281858 3.61569311 3.31005177 3.61569311 3.31005177 0.122250602 0.142281858 0.122250602 0.142281858 3.61569311"></polygon>
        <polygon id="path-3" points="0.106918142 3.61569311 3.27468805 3.61569311 3.27468805 0.122250602 0.106918142 0.122250602"></polygon>
    </defs>
    <g id="01-Homepage" stroke="none" stroke-width="1" fill="none" fill-rule="evenodd">
        <g id="Homapage-Desktop-Full-B" transform="translate(-354.000000, -2764.000000)">
            <g id="Footer" transform="translate(0.000000, 2353.000000)">
                <g id="Logos-Footer" transform="translate(131.000000, 398.000000)">
                    <g id="Grand-Luxxe-Logo" transform="translate(223.000000, 13.000000)">
                        <g id="Page-1">
                            <polygon id="Fill-1" fill="#FEFEFE" points="10.7552168 13.4153463 79.3687035 13.4153463 79.3687035 13.0951566 10.7552168 13.0951566"></polygon>
                            <g id="Group-52" transform="translate(0.000000, 0.011570)">
                                <path d="M12.992858,16.7449578 C12.992858,16.238359 12.7104996,15.9450861 12.1091588,15.9716012 C12.0938004,15.9716012 12.0359111,15.9716012 11.973296,15.9772256 C11.9366721,15.9824483 11.8949288,15.9824483 11.8476721,15.9824483 L11.8476721,17.4170749 C11.9575438,17.4544371 12.1560217,17.4865766 12.2556544,17.4865766 C12.715619,17.4705069 12.992858,17.2198188 12.992858,16.7449578 L12.992858,16.7449578 Z M11.1211013,19.1023897 C11.2305792,19.0863199 11.3510836,19.0489578 11.3510836,19.0119973 L11.3510836,16.0463255 C11.3510836,16.0037407 11.319973,15.9876709 11.0844774,15.9667803 L10.8753668,15.9507105 L10.8600084,15.8703618 L12.250535,15.8703618 C13.1074553,15.8703618 13.5260704,16.1797044 13.5260704,16.7345124 C13.5260704,17.1450945 13.2019686,17.4705069 12.7368845,17.5825933 L13.4473093,18.6861832 C13.6619332,19.0007485 13.7611721,19.0758746 13.9911544,19.1076123 L14.0848801,19.1236821 L14.1061456,19.2036291 L13.1649509,19.2036291 L13.0763447,19.0437351 L12.2190305,17.5982613 C12.13515,17.5825933 11.9315527,17.5448294 11.8476721,17.5183144 L11.8476721,19.0276654 C11.8476721,19.0702502 11.983535,19.0919443 12.1146721,19.1076123 L12.3340217,19.1236821 L12.3497739,19.2036291 L10.8544951,19.2036291 L10.8698535,19.1236821 L11.1211013,19.1023897 Z" id="Fill-2" fill="#FEFEFE"></path>
                                <path d="M16.6132677,19.10247 C16.7751217,19.0864003 16.8586084,19.0594835 16.8586084,19.011676 L16.8586084,16.0464059 C16.8586084,16.003821 16.8274978,15.9877513 16.592396,15.9664589 L16.4356615,15.9503891 L16.4199093,15.8704421 L18.9445951,15.8704421 L18.9969712,16.8944868 L18.8977323,16.8944868 L18.8453562,16.6916062 C18.6937412,16.2223696 18.5893827,15.9664589 17.7789314,15.9664589 L17.3555907,15.9664589 L17.3555907,17.4436704 L17.5647013,17.438046 C18.0715288,17.422378 18.2180243,17.3797931 18.3121438,17.0861185 L18.3645199,16.9262245 L18.4535199,16.9318489 L18.344042,18.0679801 L18.2546482,18.0623556 L18.2392898,17.9076843 C18.2231438,17.6039661 18.0715288,17.5609795 17.5331969,17.5449098 L17.3555907,17.5396871 L17.3555907,19.0864003 L17.8470597,19.10247 C18.6783827,19.10247 18.8398429,18.7609879 19.007604,18.3504059 L19.070219,18.1531497 L19.1745774,18.1583724 L19.0131173,19.2037094 L16.414396,19.2037094 L16.4301482,19.1237624 L16.6132677,19.10247 Z" id="Fill-4" fill="#FEFEFE"></path>
                                <path d="M21.4831429,19.10247 L21.446519,18.2596118 L21.535519,18.2596118 L21.7028863,18.6971107 C21.8856119,19.0385928 22.1786031,19.1771944 22.5078243,19.1771944 C22.9469173,19.1771944 23.2241562,18.851782 23.2241562,18.4568679 C23.2241562,18.0197708 22.9205323,17.8490297 22.455842,17.6782887 C21.9379881,17.4914779 21.5402447,17.2516369 21.5402447,16.707676 C21.5402447,16.2701771 21.8962447,15.7961195 22.5861916,15.7961195 C22.8736695,15.7961195 23.0823863,15.8383026 23.2765323,15.8969572 L23.4907624,15.8278573 L23.5010013,16.7554835 L23.4171208,16.7554835 L23.1347624,16.0889907 C22.9729084,15.9821269 22.7901827,15.9021799 22.5653199,15.9021799 C22.2045942,15.9021799 21.9533465,16.1641168 21.9533465,16.483503 C21.9533465,16.8944868 22.2829615,17.0596034 22.7011827,17.2146765 C23.281258,17.4276006 23.6730942,17.6782887 23.6730942,18.2491665 C23.6730942,18.7449182 23.2135235,19.278032 22.4763199,19.278032 C22.1573376,19.2836564 21.7812535,19.2037094 21.4831429,19.10247" id="Fill-6" fill="#FEFEFE"></path>
                                <path d="M26.1545796,19.10247 C26.3223407,19.0864003 26.3845619,19.0490381 26.3845619,19.011676 L26.3845619,16.0464059 C26.3845619,16.003821 26.3534513,15.9877513 26.1183496,15.9664589 L25.9301106,15.9503891 L25.9147522,15.8704421 L27.3521416,15.8704421 L27.3363894,15.9503891 L27.1115265,15.9716815 C26.9390398,15.9877513 26.8815442,16.0251134 26.8815442,16.0624756 L26.8815442,19.027344 C26.8815442,19.0703305 26.9130487,19.0864003 27.1481504,19.1076927 L27.3308761,19.1237624 L27.3466283,19.2037094 L25.9092389,19.2037094 L25.9245973,19.1237624 L26.1545796,19.10247 Z" id="Fill-8" fill="#FEFEFE"></path>
                                <path d="M32.2539544,17.5876955 C32.2539544,16.7130995 31.8093482,15.9666597 30.7850606,15.9666597 L30.5286934,15.9666597 L30.5286934,18.9958071 L30.8839058,19.1026709 C31.7884765,19.0861994 32.2539544,18.3827462 32.2539544,17.5876955 L32.2539544,17.5876955 Z M29.8017288,19.1026709 C29.9694898,19.0861994 30.0317111,19.049239 30.0317111,19.0118768 L30.0317111,16.046205 C30.0317111,16.0040219 30.0006004,15.9879522 29.7658925,15.9666597 L29.6087642,15.95059 L29.5930119,15.870643 L30.8791801,15.8545733 C32.1338438,15.8276564 32.7871668,16.5371358 32.7871668,17.459941 C32.7871668,18.414484 32.1176978,19.2035086 30.7641889,19.2035086 L29.5874987,19.2035086 L29.6036447,19.1235616 L29.8017288,19.1026709 Z" id="Fill-10" fill="#FEFEFE"></path>
                                <path d="M35.2051708,19.10247 C35.3674186,19.0864003 35.4509053,19.0594835 35.4509053,19.011676 L35.4509053,16.0464059 C35.4509053,16.003821 35.4197947,15.9877513 35.1842991,15.9664589 L35.0275646,15.9503891 L35.0122062,15.8704421 L37.536892,15.8704421 L37.5892681,16.8944868 L37.4900292,16.8944868 L37.4376531,16.6916062 C37.2856442,16.2223696 37.1812858,15.9664589 36.3712283,15.9664589 L35.9474938,15.9664589 L35.9474938,17.4436704 L36.1566044,17.438046 C36.6638257,17.422378 36.8103212,17.3797931 36.9040469,17.0861185 L36.956423,16.9262245 L37.0458168,16.9318489 L36.9359451,18.0679801 L36.8465513,18.0623556 L36.8311929,17.9076843 C36.8154407,17.6039661 36.6638257,17.5609795 36.1254938,17.5449098 L35.9474938,17.5396871 L35.9474938,19.0864003 L36.4389628,19.10247 C37.2702858,19.10247 37.4321398,18.7609879 37.5995071,18.3504059 L37.6625159,18.1531497 L37.7668743,18.1583724 L37.6050204,19.2037094 L35.0066929,19.2037094 L35.0220513,19.1237624 L35.2051708,19.10247 Z" id="Fill-12" fill="#FEFEFE"></path>
                                <path d="M40.6399991,16.3024371 L40.6455124,18.6437993 C40.6455124,18.9957267 40.7289991,19.0756737 41.016477,19.1025905 L41.1629726,19.1234812 L41.178331,19.20383 L40.0492912,19.20383 L40.0650434,19.1234812 L40.2115389,19.1025905 C40.4308885,19.0756737 40.5352469,19.0061721 40.5352469,18.6329522 L40.5509991,16.3345766 C40.4938973,16.185128 40.3891451,16.0143869 40.1430168,15.9665794 L40.0233,15.9448852 L40.0075478,15.8649382 L40.9483487,15.8649382 L42.9091053,18.4465431 L42.9193442,18.4409187 L42.913831,16.4301916 C42.913831,16.0782641 42.8303442,15.9983171 42.5428664,15.9718021 L42.3967646,15.9505096 L42.3810124,15.8705627 L43.5100522,15.8705627 L43.4943,15.9505096 L43.3481982,15.9718021 C43.1284549,15.9878718 43.0240965,16.0782641 43.0240965,16.4410387 L43.0134637,19.2359695 L42.903592,19.2359695 L40.6502381,16.3024371 L40.6399991,16.3024371 Z" id="Fill-14" fill="#FEFEFE"></path>
                                <g id="Group-18" transform="translate(45.681416, 15.668003)">
                                    <mask id="mask-2" fill="white">
                                        <use xlink:href="#path-1"></use>
                                    </mask>
                                    <g id="Clip-17"></g>
                                    <path d="M0.142281858,1.88791407 C0.142281858,0.83735435 0.915715487,0.122250602 2.01915796,0.122250602 C2.35349867,0.122250602 2.71934381,0.22911442 2.87135265,0.31428408 L3.21081283,0.18652959 L3.22105177,1.24271372 L3.12732611,1.24271372 L2.74533496,0.426370567 C2.58348097,0.303838745 2.33774646,0.22911442 2.00340575,0.22911442 C1.16696327,0.22911442 0.69124646,0.959484429 0.69124646,1.83448216 C0.69124646,2.83201172 1.25045,3.50894982 2.02388363,3.50894982 C2.52086593,3.50894982 2.78747212,3.28517859 3.05407832,2.89588896 L3.21081283,2.51182201 L3.31005177,2.51182201 L3.14268451,3.41855749 L2.94420664,3.42900282 C2.75084823,3.51457423 2.33774646,3.61581364 1.98253407,3.61581364 C0.921228761,3.61581364 0.142281858,2.9541418 0.142281858,1.88791407" id="Fill-16" fill="#FEFEFE" mask="url(#mask-2)"></path>
                                </g>
                                <path d="M51.4565708,19.10247 C51.6184248,19.0864003 51.7023053,19.0594835 51.7023053,19.011676 L51.7023053,16.0464059 C51.7023053,16.003821 51.6708009,15.9877513 51.4353053,15.9664589 L51.2789646,15.9503891 L51.2632124,15.8704421 L53.788292,15.8704421 L53.8406681,16.8944868 L53.7410354,16.8944868 L53.6886593,16.6916062 C53.5370442,16.2223696 53.4326858,15.9664589 52.6222345,15.9664589 L52.1988938,15.9664589 L52.1988938,17.4436704 L52.4080044,17.438046 C52.9148319,17.422378 53.0613274,17.3797931 53.1554469,17.0861185 L53.207823,16.9262245 L53.296823,16.9318489 L53.1869513,18.0679801 L53.0979513,18.0623556 L53.0821991,17.9076843 C53.0668407,17.6039661 52.9148319,17.5609795 52.3765,17.5449098 L52.1988938,17.5396871 L52.1988938,19.0864003 L52.6903628,19.10247 C53.521292,19.10247 53.6835398,18.7609879 53.8509071,18.3504059 L53.9135221,18.1531497 L54.0182743,18.1583724 L53.8560265,19.2037094 L51.2576991,19.2037094 L51.2734513,19.1237624 L51.4565708,19.10247 Z" id="Fill-19" fill="#FEFEFE"></path>
                                <g id="Group-23" transform="translate(60.646018, 15.668003)">
                                    <mask id="mask-4" fill="white">
                                        <use xlink:href="#path-3"></use>
                                    </mask>
                                    <g id="Clip-22"></g>
                                    <path d="M0.106918142,1.88791407 C0.106918142,0.83735435 0.88035177,0.122250602 1.98379425,0.122250602 C2.31813496,0.122250602 2.68398009,0.22911442 2.83598894,0.31428408 L3.17544912,0.18652959 L3.18568805,1.24271372 L3.09196239,1.24271372 L2.70997124,0.426370567 C2.54811726,0.303838745 2.30238274,0.22911442 1.96764823,0.22911442 C1.13159956,0.22911442 0.655488938,0.959484429 0.655488938,1.83448216 C0.655488938,2.83201172 1.21469248,3.50894982 1.98851991,3.50894982 C2.48550221,3.50894982 2.75210841,3.28517859 3.0183208,2.89588896 L3.17544912,2.51182201 L3.27468805,2.51182201 L3.1073208,3.41855749 L2.90884292,3.42900282 C2.71548451,3.51457423 2.30238274,3.61581364 1.94717035,3.61581364 C0.885471239,3.61581364 0.106918142,2.9541418 0.106918142,1.88791407" id="Fill-21" fill="#FEFEFE" mask="url(#mask-4)"></path>
                                </g>
                                <path d="M66.3754124,19.10247 C66.5475053,19.0864003 66.5951558,19.0490381 66.5951558,19.011676 L66.5951558,16.0464059 C66.5951558,16.0090437 66.5794035,15.9821269 66.3387885,15.9664589 L66.1714212,15.9503891 L66.155669,15.8704421 L67.6351956,15.8704421 L67.6194434,15.9503891 L67.3213327,15.9716815 C67.1539655,15.9877513 67.0913504,16.0251134 67.0913504,16.0624756 L67.0913504,19.0864003 L67.4993327,19.1076927 C68.2940319,19.1076927 68.4141425,18.8091971 68.6075009,18.3130437 L68.6756292,18.0888707 L68.7799876,18.0888707 L68.6287664,19.2037094 L66.1505496,19.2037094 L66.1663018,19.1237624 L66.3754124,19.10247 Z" id="Fill-24" fill="#FEFEFE"></path>
                                <path d="M71.5383181,18.0463261 L71.5383181,16.0412234 C71.5383181,16.0038612 71.5068137,15.9877915 71.2713181,15.966499 L71.0626013,15.9452066 L71.0468491,15.8648579 L72.5263757,15.8648579 L72.5106235,15.9452066 L72.2648889,15.966499 C72.0975217,15.982167 72.0349066,16.019931 72.0349066,16.0572931 L72.0349066,17.9290169 C72.0349066,18.734513 72.3645217,19.065148 73.0072119,19.065148 C73.5979199,19.065148 73.9692783,18.6754567 73.9692783,17.9077245 L73.963765,16.430513 C73.963765,16.0838082 73.8751588,15.9934159 73.5872872,15.966499 L73.4411854,15.9452066 L73.4254332,15.8648579 L74.5599863,15.8648579 L74.5442341,15.9452066 L74.392619,15.966499 C74.1677562,15.9934159 74.0740305,16.0729611 74.0740305,16.4409583 L74.0633978,17.9346413 C74.0633978,18.7610281 73.6920394,19.2780722 72.8244863,19.2780722 C71.9301544,19.2780722 71.5383181,18.9213238 71.5383181,18.0463261" id="Fill-26" fill="#FEFEFE"></path>
                                <path d="M78.154208,19.10247 C78.1908319,19.0968456 78.2113097,19.0968456 78.1908319,19.0968456 C78.6767876,19.0807759 78.9800177,18.7344728 78.9800177,18.323489 C78.9800177,17.8116676 78.6039336,17.4541157 78.0600885,17.4541157 C77.9710885,17.4541157 77.8194735,17.4541157 77.7619779,17.4705872 L77.7619779,19.011676 L78.0860796,19.1076927 C78.1120708,19.1076927 78.1384558,19.1076927 78.154208,19.10247 L78.154208,19.10247 Z M78.8020177,16.6703138 C78.8020177,16.2223696 78.5562832,15.9773059 77.9919602,15.9773059 L77.7619779,15.9773059 L77.7619779,17.3528763 L78.0285841,17.3528763 C78.5562832,17.3368066 78.8020177,17.0330883 78.8020177,16.6703138 L78.8020177,16.6703138 Z M77.0354071,19.10247 C77.2027743,19.0864003 77.2653894,19.0490381 77.2653894,19.011676 L77.2653894,16.0464059 C77.2653894,16.003821 77.233885,15.9877513 76.9983894,15.9664589 L76.8420487,15.9503891 L76.8262965,15.8704421 L78.1171903,15.8704421 C79.0741372,15.8704421 79.3564956,16.227994 79.3564956,16.5903668 C79.3564956,16.9688093 79.058385,17.2785537 78.3944292,17.3797931 L78.3944292,17.3958629 C79.1469912,17.438046 79.523469,17.8438071 79.523469,18.2913495 C79.523469,18.8413366 79.0375133,19.2037094 78.1227035,19.2037094 L76.8207832,19.2037094 L76.8365354,19.1237624 L77.0354071,19.10247 Z" id="Fill-28" fill="#FEFEFE"></path>
                                <path d="M0,5.77273527 C0,2.62346657 2.2994292,0.390173461 5.52823894,0.390173461 C6.55213274,0.390173461 7.48111947,0.67942891 8.0320531,0.952614612 L8.94568142,0.599080174 L8.99293805,3.6197909 L8.74090265,3.6197909 L7.7804115,1.30614905 C7.35510177,0.968684359 6.58363717,0.67942891 5.44908407,0.67942891 C2.94526991,0.67942891 1.35429646,2.86451278 1.35429646,5.6120378 C1.35429646,8.58453929 3.07128761,10.6089257 5.51209292,10.6089257 C6.31545575,10.6089257 7.16568142,10.3839492 7.62249558,10.078624 L7.62249558,6.78512935 C7.62249558,6.67223937 7.49647788,6.62443187 6.85103097,6.57582089 L6.09492478,6.5115419 L6.04766814,6.28696718 L10.1586018,6.28696718 L10.1113451,6.5115419 L9.434,6.59229238 C8.97718584,6.64050162 8.81966372,6.72044861 8.81966372,6.83293684 L8.81966372,9.85364757 L9.70178761,9.82150807 L9.71753982,9.99827529 C8.50501327,10.4321585 6.69350885,10.8981811 5.38646903,10.8981811 C2.28367699,10.8981811 0,8.90553248 0,5.77273527" id="Fill-30" fill="#FEFEFE"></path>
                                <path d="M15.6879827,5.17815463 C15.6879827,4.08541182 15.0106376,3.42695393 13.6248367,3.47516317 L12.978996,3.49123292 L12.978996,6.72044861 C13.2152792,6.78512935 13.7351022,6.86507634 13.9713854,6.86507634 C15.0263898,6.8168671 15.6879827,6.2226882 15.6879827,5.17815463 L15.6879827,5.17815463 Z M11.4199208,10.3839492 C11.656204,10.33574 11.876735,10.271461 11.876735,10.1911123 L11.876735,3.65193039 C11.876735,3.57158166 11.8290845,3.53944216 11.3411597,3.49123292 L10.7898323,3.42695393 L10.7421819,3.20197747 L14.018642,3.20197747 C15.9242659,3.18590772 16.8693987,3.9086446 16.8693987,5.12994539 C16.8693987,6.09413022 16.1447969,6.8168671 15.0263898,7.0579133 L16.6646199,9.61260136 C17.0899296,10.2232518 17.247058,10.3518097 17.7196243,10.400019 L18.0031642,10.4321585 L18.0504208,10.6732047 L16.0345314,10.6732047 L15.8293588,10.33574 L13.9241288,7.15433179 C13.7351022,7.10612255 13.1684164,7.00970406 12.978996,6.97796631 L12.978996,10.207182 C12.978996,10.3196702 13.2467836,10.3678795 13.498819,10.3839492 L14.0974031,10.4321585 L14.1442659,10.6732047 L10.7421819,10.6732047 L10.7898323,10.4321585 L11.4199208,10.3839492 Z" id="Fill-32" fill="#FEFEFE"></path>
                                <path d="M22.3199792,4.27836931 L22.2569704,4.27836931 L21.2019659,7.36335902 L23.2962226,7.36335902 L22.3199792,4.27836931 Z M20.6506385,9.00207149 C20.2253288,10.175163 20.2725854,10.3197908 21.1074527,10.4001395 L21.4697535,10.4318772 L21.501258,10.6729235 L18.8552801,10.6729235 L18.9021429,10.4318772 L19.2329394,10.4001395 C19.8476695,10.3197908 19.9102845,10.2233723 20.5876296,8.32754385 L22.0833022,4.00518361 L21.9891827,3.66771892 C22.2727226,3.57130044 22.6822801,3.29811473 22.82405,3.02533078 L22.9815721,3.02533078 L25.1230854,9.41988492 C25.3755146,10.239442 25.5015323,10.3519303 25.9422004,10.4001395 L26.3990146,10.4318772 L26.4309128,10.6729235 L23.1387004,10.6729235 L23.1702049,10.4318772 L23.6742757,10.4001395 C24.0995854,10.3519303 24.1940987,10.175163 24.0050721,9.54844289 L23.3911296,7.63654473 L21.1074527,7.63654473 L20.6506385,9.00207149 Z" id="Fill-34" fill="#FEFEFE"></path>
                                <path d="M28.6366164,4.14985151 L28.6366164,9.74091829 C28.6366164,10.2073427 28.8256429,10.3519704 29.4084748,10.4001797 L29.8180323,10.4319174 L29.8495367,10.6729636 L27.2504217,10.6729636 L27.2823199,10.4319174 L27.6918774,10.4001797 C28.1329394,10.3519704 28.3530765,10.2234124 28.3530765,9.72525029 L28.384581,4.10164227 C28.2428111,3.82845656 27.9750235,3.55527086 27.5182093,3.49099187 L27.1559084,3.42671289 L27.124404,3.20213817 L29.3454659,3.20213817 L33.7080412,9.01818141 L33.7395456,9.01818141 L33.7395456,4.13378176 C33.7395456,3.6356196 33.5824173,3.52313137 32.9676872,3.47492213 L32.5738819,3.42671289 L32.527019,3.20213817 L35.1568509,3.20213817 L35.1095942,3.42671289 L34.7004305,3.47492213 C34.2589748,3.52313137 34.0388376,3.65168935 34.0388376,4.16592126 L33.991581,10.7533124 L33.6765367,10.7533124 L28.683873,4.14985151 L28.6366164,4.14985151 Z" id="Fill-36" fill="#FEFEFE"></path>
                                <path d="M42.0721509,7.0740634 C42.0721509,5.00146776 41.0328987,3.45877203 38.8279827,3.45877203 L38.182142,3.45877203 L38.182142,10.2072624 L39.0485137,10.3840296 C41.0644031,10.3840296 42.0721509,8.8252641 42.0721509,7.0740634 L42.0721509,7.0740634 Z M36.622673,10.3840296 C36.9223588,10.3358203 37.0794872,10.2711396 37.0794872,10.1911926 L37.0794872,3.65201074 C37.0794872,3.57126026 37.0326243,3.53952251 36.5443058,3.49131327 L36.0874916,3.42663254 L36.0559872,3.20205782 C36.622673,3.18598807 37.1267438,3.18598807 37.5524473,3.18598807 L39.0323677,3.18598807 C41.7575004,3.13777883 43.2535668,4.66400307 43.2535668,6.81694745 C43.2535668,8.93775233 41.6629872,10.6728833 38.8122305,10.6728833 L36.0406288,10.6728833 L36.0874916,10.4318371 L36.622673,10.3840296 Z" id="Fill-38" fill="#FEFEFE"></path>
                                <path d="M47.0193301,10.3678795 C47.4761442,10.3196702 47.6179142,10.2393215 47.6179142,10.1268333 L47.6179142,1.12938183 C47.6179142,1.0168936 47.5545115,0.984754106 46.9094584,0.920475118 L46.3262327,0.872265876 L46.2793699,0.631219669 L50.5159274,0.631219669 L50.468277,0.872265876 L49.4758876,0.936544865 C49.0190735,0.984754106 48.8623389,1.06510284 48.8623389,1.17718933 L48.8623389,10.33574 L50.2634982,10.3839492 C52.5633212,10.3839492 52.972485,9.58046187 53.4761619,8.27921409 L53.6817283,7.54000572 L53.9648743,7.54000572 L53.4292991,10.6732047 L46.2632239,10.6732047 L46.3100867,10.4321585 L47.0193301,10.3678795 Z" id="Fill-40" fill="#FEFEFE"></path>
                                <path d="M55.7145907,8.13454619 L55.7145907,3.65189022 C55.7145907,3.57154148 55.6830863,3.53940199 55.1947677,3.49119275 L54.6430465,3.42691376 L54.5961836,3.2019373 L57.9667633,3.2019373 L57.9199004,3.42691376 L57.2736659,3.49119275 C56.9428695,3.53940199 56.8329978,3.60368098 56.8329978,3.68402971 L56.8329978,7.92563948 C56.8329978,9.61256119 57.5575996,10.3356998 58.9902633,10.3356998 C60.376458,10.3356998 61.1010597,9.43579397 61.1010597,7.76494201 L61.1010597,4.13398263 C61.1010597,3.63582047 60.896281,3.52333224 60.3134491,3.475123 L59.8881394,3.42691376 L59.856635,3.2019373 L62.502219,3.2019373 L62.4707146,3.42691376 L62.0454049,3.475123 C61.6047367,3.52333224 61.3838119,3.65189022 61.3838119,4.16612213 L61.3684535,7.82922099 C61.3684535,9.74111916 60.5024757,10.8820712 58.6279624,10.8820712 C56.6589358,10.8820712 55.7145907,10.0785839 55.7145907,8.13454619" id="Fill-42" fill="#FEFEFE"></path>
                                <path d="M63.6383867,10.4000591 C64.2208248,10.3197104 64.4567142,10.1108037 65.1659575,9.08233988 L66.5671168,7.09009297 L64.8351611,4.47112593 C64.3314841,3.73191756 64.2523292,3.52341259 63.8585239,3.47520335 L63.4013159,3.42699411 L63.3544531,3.20201765 L66.6466655,3.20201765 L66.6151611,3.42699411 L66.0949442,3.4591336 C65.6542761,3.50734284 65.5912673,3.63590082 66.0480814,4.39077719 L67.3078646,6.28700736 L67.323223,6.28700736 L68.3632628,4.72824188 C69.0717186,3.70017981 68.9303425,3.55555208 68.2687496,3.47520335 L67.8119354,3.42699411 L67.780431,3.20201765 L70.6307938,3.20201765 L70.5992894,3.42699411 L70.2216301,3.47520335 C69.6384044,3.52341259 69.402515,3.74798731 68.6940593,4.76038138 L67.4649929,6.49551233 L69.5915416,9.69299027 C69.9376965,10.2393617 70.0007053,10.3518499 70.3791522,10.4000591 L70.8198204,10.4317969 L70.8666832,10.6732448 L67.5910106,10.6732448 L67.622515,10.4317969 L68.1580903,10.4000591 C68.599546,10.3839894 68.6464088,10.2232919 68.3471168,9.77333901 L66.7403912,7.28292994 L66.7096743,7.28292994 L65.496754,9.11447937 C64.819015,10.1108037 64.9450327,10.3197104 65.5751212,10.4000591 L66.0319354,10.4317969 L66.0634398,10.6732448 L63.213077,10.6732448 L63.2445814,10.4317969 L63.6383867,10.4000591 Z" id="Fill-44" fill="#FEFEFE"></path>
                                <path d="M72.1128801,10.4000591 C72.6953181,10.3197104 72.9312075,10.1108037 73.6404509,9.08233988 L75.0416102,7.09009297 L73.3096544,4.47112593 C72.8059774,3.73191756 72.7268226,3.52341259 72.3330173,3.47520335 L71.8762031,3.42699411 L71.8289465,3.20201765 L75.1211588,3.20201765 L75.0896544,3.42699411 L74.5694376,3.4591336 C74.1287695,3.50734284 74.0657606,3.63590082 74.5225748,4.39077719 L75.782358,6.28700736 L75.7981102,6.28700736 L76.8377562,4.72824188 C77.5462119,3.70017981 77.4048358,3.55555208 76.7432429,3.47520335 L76.2864288,3.42699411 L76.2549243,3.20201765 L79.1052872,3.20201765 L79.0737827,3.42699411 L78.6961235,3.47520335 C78.1128978,3.52341259 77.8770084,3.74798731 77.1685527,4.76038138 L75.9394863,6.49551233 L78.066035,9.69299027 C78.4121898,10.2393617 78.4751987,10.3518499 78.8536456,10.4000591 L79.2943137,10.4317969 L79.3411765,10.6732448 L76.065504,10.6732448 L76.0970084,10.4317969 L76.6325836,10.4000591 C77.0740394,10.3839894 77.1209022,10.2232919 76.8216102,9.77333901 L75.2148845,7.28292994 L75.1841677,7.28292994 L73.9712473,9.11447937 C73.2935084,10.1108037 73.4195261,10.3197104 74.0496146,10.4000591 L74.5064288,10.4317969 L74.5379332,10.6732448 L71.6875704,10.6732448 L71.7190748,10.4317969 L72.1128801,10.4000591 Z" id="Fill-46" fill="#FEFEFE"></path>
                                <path d="M80.7289071,10.3839492 C81.0435575,10.33574 81.2010796,10.271461 81.2010796,10.1911123 L81.2010796,3.65193039 C81.2010796,3.57117991 81.1542168,3.53944216 80.6658982,3.49123292 L80.2090841,3.42695393 L80.1775796,3.20197747 L86.0362212,3.20197747 L86.1622389,5.45134033 L85.9259558,5.46741008 L85.7999381,5.00138741 C85.4222788,3.92471435 85.1068407,3.45909343 83.5324071,3.45909343 L82.3041283,3.45909343 L82.3041283,6.70437887 L83.1386018,6.68830912 C84.1624956,6.68830912 84.4617876,6.54368139 84.6346681,5.90129325 L84.7445398,5.53168907 L84.9501062,5.54775881 L84.697677,8.13458636 L84.5086504,8.11851662 L84.4617876,7.76498218 C84.4137434,7.0900528 84.194,6.96189656 83.0755929,6.96189656 L82.3041283,6.92935533 L82.3041283,10.3839492 L83.6584248,10.4160887 C85.3907743,10.4160887 85.7845796,9.74115934 86.1622389,8.77737625 L86.2882566,8.34349308 L86.5560442,8.34349308 L86.178385,10.6732047 L80.1622212,10.6732047 L80.1937257,10.4321585 L80.7289071,10.3839492 Z" id="Fill-48" fill="#FEFEFE"></path>
                                <path d="M88.1712367,3.23182703 C88.6130863,3.23182703 88.9682987,3.59701203 88.9682987,4.05058065 C88.9682987,4.51338936 88.6130863,4.87294996 88.1661173,4.87294996 C87.7215111,4.87294996 87.3603916,4.51338936 87.3603916,4.05058065 C87.3603916,3.59701203 87.7215111,3.23182703 88.1661173,3.23182703 L88.1712367,3.23182703 Z M88.1661173,3.35998326 C87.8081482,3.35998326 87.5167323,3.66932589 87.5167323,4.05058065 C87.5167323,4.44027201 87.8081482,4.74680244 88.1712367,4.74680244 C88.5315686,4.75001639 88.8206217,4.44027201 88.8206217,4.05459808 C88.8206217,3.66932589 88.5315686,3.35998326 88.1712367,3.35998326 L88.1661173,3.35998326 Z M88.0152898,4.52825388 L87.8703695,4.52825388 L87.8703695,3.6150905 C87.9463739,3.60343993 88.0172588,3.59178936 88.1263429,3.59178936 C88.263781,3.59178936 88.3531748,3.6215184 88.4087013,3.66048753 C88.4634403,3.70186713 88.4906128,3.76253043 88.4906128,3.85051229 C88.4906128,3.97063365 88.4126394,4.04415275 88.3153695,4.07267655 L88.3153695,4.08030968 C88.3949181,4.09477245 88.4469004,4.16708631 88.4654093,4.30207219 C88.4886438,4.44428945 88.5083341,4.49973008 88.5240863,4.52825388 L88.3720774,4.52825388 C88.3500243,4.49973008 88.3279712,4.41456042 88.3110376,4.29443906 C88.2889845,4.17873688 88.2322765,4.13454507 88.1145288,4.13454507 L88.0152898,4.13454507 L88.0152898,4.52825388 Z M88.0152898,4.02205684 L88.1212235,4.02205684 C88.2366084,4.02205684 88.3409668,3.97947201 88.3409668,3.86577855 C88.3409668,3.78542982 88.2811084,3.70548282 88.1212235,3.70548282 C88.0719978,3.70548282 88.041281,3.70869677 88.0152898,3.7135177 L88.0152898,4.02205684 Z" id="Fill-50" fill="#FEFEFE"></path>
                            </g>
                        </g>
                    </g>
                </g>
            </g>
        </g>
    </g>
</svg>