<?xml version="1.0" encoding="UTF-8"?>
<svg width="89px" height="32px" viewBox="0 0 89 32" version="1.1" xmlns="http://www.w3.org/2000/svg" xmlns:xlink="http://www.w3.org/1999/xlink">
    <!-- Generator: Sketch 45.1 (43504) - http://www.bohemiancoding.com/sketch -->
    <title>The Grand Mayan Logo</title>
    <desc>Created with Sketch.</desc>
    <defs>
        <polygon id="path-1" points="1.87892446 2.0143534 1.87892446 0.21241165 0.0228582734 0.21241165 0.0228582734 2.0143534 1.87892446 2.0143534"></polygon>
    </defs>
    <g id="01-Homepage" stroke="none" stroke-width="1" fill="none" fill-rule="evenodd">
        <g id="Homapage-Desktop-Full-B" transform="translate(-619.000000, -2755.000000)">
            <g id="Footer" transform="translate(0.000000, 2353.000000)">
                <g id="Logos-Footer" transform="translate(131.000000, 398.000000)">
                    <g id="The-Grand-Mayan-Logo" transform="translate(488.000000, 4.000000)">
                        <g id="Page-1">
                            <g id="Group-3" transform="translate(0.000000, 23.168932)" fill="#FEFEFE">
                                <path d="M6.25461906,0.256900971 C6.25461906,0.432745631 6.25173777,0.64152233 6.24501475,0.881056311 C6.23925216,1.12245437 6.23348957,1.33278447 6.22964784,1.51826019 C6.23733129,1.61084272 6.24405432,1.73822136 6.24693561,1.90288155 C6.2526982,2.06754175 6.25461906,2.16292039 6.25461906,2.18901748 C6.25461906,2.35647379 6.24597518,2.44905631 6.22964784,2.46614369 C6.14961187,2.3257165 6.07533849,2.17969709 6.0068277,2.03181359 C5.98953993,1.91499806 5.97033129,1.73418252 5.95464424,1.48719223 C5.61337086,1.3871534 5.22471619,1.31134757 4.79476295,1.25822136 C4.36096799,1.20385243 3.95214424,1.17651262 3.56829173,1.17651262 C3.56829173,1.52012427 3.55868741,1.95227961 3.53755791,2.46987184 C3.51834928,2.98994951 3.5068241,3.2537165 3.5068241,3.2614835 L3.5068241,6.00012427 C3.5068241,6.22660971 3.51834928,6.56059029 3.53755791,7.00486214 C3.55868741,7.44944466 3.56829173,7.78808544 3.56829173,8.02109515 C3.77766583,8.02109515 4.0196946,8.0416 4.29918022,8.08105631 C4.57802554,8.11833786 4.71760827,8.19787184 4.71760827,8.3159301 C4.71760827,8.35880388 4.62988885,8.38024078 4.45637086,8.38024078 C4.3705723,8.38024078 4.15767662,8.36719223 3.82184568,8.33829903 C3.48441403,8.31033786 3.25134928,8.29697864 3.12105072,8.29697864 C3.03429173,8.29697864 2.74872338,8.3159301 2.26498597,8.35600777 C2.07386007,8.37278447 1.91474856,8.38024078 1.78477014,8.38024078 C1.61893561,8.38024078 1.53986007,8.35880388 1.53986007,8.31779417 C1.53986007,8.23453204 1.66023417,8.16711456 1.90706511,8.11367767 C2.15389604,8.05744466 2.40648957,8.03134757 2.66676655,8.03134757 C2.66676655,7.79740583 2.68053273,7.45690097 2.70742482,7.01418252 C2.73527734,6.56897864 2.74776295,6.23313398 2.74776295,6.00664854 L2.74776295,3.26521165 C2.74776295,3.03872621 2.73527734,2.69511456 2.70742482,2.23406602 C2.68053273,1.77084272 2.66676655,1.42008544 2.66676655,1.17651262 C2.22624856,1.17651262 1.82126655,1.20012427 1.45598237,1.24486214 C1.09037806,1.28991068 0.720291727,1.37130874 0.34892482,1.48719223 C0.332597482,1.84012427 0.311467986,2.08059029 0.285536331,2.2039301 C0.224708993,2.29558058 0.160039928,2.38288155 0.0915291367,2.46614369 C0.065597482,2.45868738 0.0463888489,2.40618252 0.0387053957,2.30893981 C0.0310219424,2.21325049 0.0268600719,2.15080388 0.0268600719,2.11693981 C0.0268600719,1.90101748 0.0297413669,1.76152233 0.0339032374,1.69969709 C0.0367845324,1.63600777 0.0463888489,1.58194951 0.065597482,1.53130874 C0.0742413669,1.45736699 0.0694392086,1.29363883 0.0521514388,1.04012427 C0.0358241007,0.787541748 0.0182161871,0.535891262 -3.20143885e-05,0.285794175 C0.043507554,0.302881553 0.0953708633,0.315930097 0.15523777,0.324318447 C0.19973777,0.46567767 0.242957194,0.604862136 0.285536331,0.736900971 C1.1928241,0.871735922 2.13660827,0.938221359 3.12105072,0.938221359 C4.11413705,0.938221359 5.06400396,0.871735922 5.96905072,0.736900971 C5.98761906,0.534648544 6.05324856,0.372784466 6.16593921,0.256900971 L6.25461906,0.256900971 Z" id="Fill-1"></path>
                            </g>
                            <path d="M12.2839849,31.4853903 C12.2839849,31.5323029 12.2231576,31.5556039 12.1027835,31.5556039 C12.015064,31.5556039 11.8530712,31.5397592 11.6158446,31.5096233 C11.3805388,31.4816621 11.2358338,31.4667495 11.1830101,31.4667495 C11.0882475,31.4667495 10.9185712,31.4816621 10.675582,31.5096233 C10.4345137,31.5397592 10.2891683,31.5556039 10.2417871,31.5556039 C10.1271755,31.5556039 10.0692295,31.5360311 10.0692295,31.4947107 C10.0692295,31.4170408 10.1947259,31.3533515 10.4453986,31.3076816 C10.5254345,31.293701 10.6506108,31.2803417 10.8183662,31.2682252 C10.8455784,30.9970019 10.8609453,30.7444194 10.8628662,30.5058175 C10.8676683,30.2700117 10.8686288,29.9938175 10.8686288,29.6766136 L10.8686288,28.7100893 L7.93643094,28.7100893 L7.93643094,29.6756816 C7.93643094,29.8611573 7.94411439,30.1622058 7.95980144,30.5844194 C7.97420791,31.0063223 7.9828518,31.2346718 7.9828518,31.2672932 C8.07537338,31.2672932 8.22680144,31.2728854 8.43489496,31.2909049 C8.6423482,31.3058175 8.7473554,31.3723029 8.7473554,31.4872544 C8.7473554,31.5323029 8.68268633,31.5556039 8.55462878,31.5556039 C8.44738058,31.5556039 8.33949209,31.5481476 8.2316036,31.5360311 C7.84679065,31.4881864 7.65214317,31.4667495 7.64445971,31.4667495 C7.55674029,31.4667495 7.39954964,31.4816621 7.16904604,31.5096233 C6.94046331,31.5397592 6.7784705,31.5556039 6.68306763,31.5556039 C6.56941655,31.5556039 6.51243094,31.5360311 6.51243094,31.4937786 C6.51243094,31.4328854 6.59918993,31.3778951 6.77462878,31.3319146 C6.95102806,31.2822058 7.11974388,31.2589049 7.28173669,31.2589049 C7.32815755,30.7528078 7.35312878,30.2258951 7.35312878,29.6747495 L7.35312878,27.5295068 C7.35312878,26.9662447 7.32815755,26.4337398 7.28173669,25.935099 C7.16040216,25.935099 7.02530144,25.9220505 6.87579424,25.8965748 C6.63280504,25.8527689 6.51243094,25.7900117 6.51243094,25.7114097 C6.51243094,25.6663612 6.57613957,25.6439922 6.70419712,25.6439922 C6.8047223,25.6439922 6.97631942,25.6589049 7.21546691,25.6881087 C7.45429424,25.7151379 7.59803885,25.7291184 7.64445971,25.7291184 C7.72641655,25.7291184 7.8778446,25.7151379 8.1003446,25.6881087 C8.32220432,25.6589049 8.48131583,25.6439922 8.57575827,25.6439922 C8.68940935,25.6439922 8.7473554,25.6654291 8.7473554,25.7039534 C8.7473554,25.7797592 8.66924029,25.8347495 8.51589137,25.8751379 C8.36158201,25.9161476 8.18326187,25.935099 7.9828518,25.935099 C7.9828518,26.119332 7.97420791,26.4225553 7.95980144,26.8425942 C7.94411439,27.2663612 7.93643094,27.4947107 7.93643094,27.5276427 L7.93643094,28.5389049 L10.8686288,28.5389049 L10.8686288,27.5295068 L10.8686288,27.3225942 C10.8686288,26.8640311 10.8523014,26.4048466 10.8183662,25.9378951 C10.6506108,25.9313709 10.5254345,25.9257786 10.4453986,25.9198757 C10.1947259,25.8797981 10.0692295,25.8123806 10.0692295,25.7132738 C10.0692295,25.6663612 10.1300568,25.6439922 10.2513914,25.6439922 C10.3400712,25.6439922 10.502064,25.6589049 10.7373698,25.6881087 C10.9726755,25.7151379 11.1212223,25.7291184 11.1830101,25.7291184 C11.2697691,25.7291184 11.4288806,25.7151379 11.6571432,25.6881087 C11.8866863,25.6589049 12.0352331,25.6439922 12.1027835,25.6439922 C12.2231576,25.6439922 12.2839849,25.6663612 12.2839849,25.7114097 C12.2839849,25.7639146 12.1981863,25.8133126 12.0256288,25.8620893 C11.8540317,25.9096233 11.690118,25.935099 11.5358086,25.935099 C11.5079561,26.197934 11.4903482,26.4402641 11.4797835,26.6639534 C11.4692187,26.8867107 11.4634561,27.1747107 11.4634561,27.5295068 L11.4634561,29.6747495 C11.4634561,30.0230214 11.4672978,30.3063612 11.4749813,30.5253903 C11.4807439,30.7444194 11.5021935,30.9895456 11.5358086,31.2589049 C11.6504201,31.2589049 11.8028086,31.2775456 11.9968158,31.3132738 C12.188582,31.3496233 12.2839849,31.4067883 12.2839849,31.4853903" id="Fill-4" fill="#FEFEFE"></path>
                            <path d="M17.1699248,31.8631456 C17.1158205,31.8817864 17.0726011,31.8463689 17.0386658,31.7537864 C17.0319428,31.7283107 17.0175363,31.6807767 16.9973673,31.6152233 C16.6260004,31.5627184 16.2587953,31.5254369 15.8973529,31.5021359 C15.5365507,31.4794563 15.1779896,31.4673398 14.8271119,31.4673398 C14.475914,31.4673398 14.1567306,31.4747961 13.8695615,31.4925049 C13.5811119,31.5095922 13.276655,31.5263689 12.9526694,31.5478058 C12.8166083,31.5478058 12.7480975,31.5310291 12.7480975,31.4990291 C12.7480975,31.3980583 12.8367773,31.3325049 13.0134968,31.3036117 C13.189896,31.2737864 13.3595723,31.2594951 13.5225255,31.2594951 C13.5695867,30.7543301 13.5929572,30.2267961 13.5929572,29.6756505 L13.5929572,27.5310291 C13.5929572,26.967767 13.5695867,26.4361942 13.5225255,25.9356893 C13.4066335,25.9356893 13.2484824,25.9226408 13.0490327,25.8878447 C12.8486227,25.8570874 12.7480975,25.7961942 12.7480975,25.712 C12.7480975,25.6663301 12.8367773,25.6427184 13.0125363,25.6427184 C13.3768601,25.663534 13.6950831,25.6821748 13.9649644,25.6952233 C14.2367665,25.7092039 14.5242558,25.7166602 14.8271119,25.7166602 C15.17895,25.7166602 15.5250255,25.7045437 15.8672594,25.6812427 C16.2085327,25.656699 16.5654932,25.6147573 16.9365399,25.552932 C16.9839212,25.3845437 17.0213781,25.2742524 17.0485903,25.2282718 C17.0831658,25.2133592 17.1225435,25.2003107 17.1699248,25.1863301 C17.1776083,25.1993786 17.1708853,25.3227184 17.1555183,25.5547961 C17.1372701,25.7887379 17.1225435,25.9937864 17.1081371,26.1696311 C17.1158205,26.2435728 17.1225435,26.3398835 17.1292665,26.4598058 C17.1363097,26.5831456 17.139191,26.6561553 17.139191,26.6803883 C17.139191,26.8254757 17.1263853,26.9022136 17.0994932,26.9078058 C17.0444284,26.7993786 16.9906442,26.6859806 16.9365399,26.5719612 C16.9307773,26.4812427 16.9192522,26.3398835 16.9058061,26.1472621 C16.6356047,26.0621359 16.3436335,26.0021748 16.0292522,25.9627184 C15.7148709,25.9245049 15.3988888,25.904932 15.0806658,25.904932 C14.7557198,25.904932 14.4701514,25.9189126 14.2185183,25.9431456 C14.2185183,26.1264466 14.2137162,26.4296699 14.1983493,26.8506408 C14.1849032,27.2719223 14.1781802,27.4984078 14.1781802,27.5310291 L14.1781802,28.4338641 L15.040968,28.4338641 C15.6156263,28.4338641 16.1595507,28.3673786 16.6724212,28.2365825 C16.7137198,27.9877282 16.7447737,27.824 16.7639824,27.743534 C16.8113637,27.6994175 16.8613061,27.6525049 16.9163709,27.6059029 C16.9230939,27.6264078 16.9192522,27.7472621 16.9058061,27.9659806 C16.8933205,28.1859417 16.8785939,28.3776311 16.8661083,28.5426019 C16.8718709,28.6342524 16.8795543,28.7594563 16.8913996,28.9166602 C16.901004,29.0747961 16.9058061,29.2161553 16.9058061,29.3404272 C16.9058061,29.4789903 16.8962018,29.5473398 16.8747522,29.5473398 C16.7879932,29.5473398 16.7322881,29.4594175 16.7079572,29.2817087 C16.6858673,29.103068 16.6724212,28.9533204 16.6724212,28.8287379 C16.4169464,28.7566602 16.1566694,28.7063301 15.8973529,28.6761942 C15.6377162,28.647301 15.3505471,28.6323883 15.040968,28.6323883 L14.1781802,28.6323883 L14.1781802,29.6756505 C14.1781802,29.8589515 14.1849032,30.1603107 14.1983493,30.5803495 C14.2137162,30.9985243 14.2185183,31.2268738 14.2185183,31.2594951 C14.854004,31.2594951 15.314691,31.2455146 15.5992989,31.2203495 C16.1323385,31.1734369 16.5722162,31.072466 16.9163709,30.9161942 C16.9230939,30.7589903 16.9336586,30.6421748 16.9461442,30.5635728 C16.9877629,30.3221748 17.0553133,30.2031845 17.1497558,30.2031845 C17.1776083,30.2031845 17.1900939,30.2631456 17.1900939,30.3877282 C17.1900939,30.4672621 17.1843313,30.5589126 17.174727,30.6636117 C17.1641622,30.7692427 17.1564788,30.8534369 17.1497558,30.9199223 C17.1497558,30.9453981 17.1564788,31.0761942 17.1699248,31.3073398 C17.1833709,31.5403495 17.1900939,31.6807767 17.1900939,31.7255146 L17.1900939,31.8041165 C17.1900939,31.8227573 17.1833709,31.8435728 17.1699248,31.8631456" id="Fill-6" fill="#FEFEFE"></path>
                            <path d="M28.2248133,27.818532 C28.2248133,27.9111146 28.1332522,27.9822602 27.948209,28.032901 C27.9209968,28.0394252 27.8006227,28.0617942 27.5902881,28.0962796 L27.5902881,30.0548039 C27.5902881,30.1287456 27.6037342,30.2269204 27.6309464,30.3421825 C27.6597594,30.4599301 27.672245,30.5403961 27.672245,30.5817165 C27.672245,30.6976 27.5816442,30.7659495 27.3937198,30.7836583 C27.2096371,30.7995029 26.8363493,30.9548427 26.2741766,31.2478136 C25.7641874,31.5162408 25.1674392,31.6492117 24.4858529,31.6492117 C23.4482665,31.6492117 22.6219752,31.281367 21.9983349,30.5441243 C21.4195147,29.874299 21.1304248,29.0562796 21.1304248,28.0832311 C21.1304248,26.9784544 21.4784212,26.0249786 22.1785759,25.2203184 C22.92195,24.3584932 23.8532486,23.9269592 24.975673,23.9269592 C25.3207881,23.9269592 25.6860723,23.9803961 26.0756874,24.0869592 C26.3590147,24.1683573 26.7188565,24.2929398 27.1488097,24.4650563 C27.158414,24.4482796 27.2057953,24.2236583 27.2925543,23.792435 C27.3348133,23.5482408 27.4129284,23.4255223 27.5246586,23.4255223 C27.5672378,23.4255223 27.5902881,23.520901 27.5902881,23.7166291 C27.5902881,23.8850175 27.5739608,24.1031146 27.5441874,24.3734058 C27.5131335,24.642765 27.4708745,24.9087068 27.4177306,25.1696777 C27.4100471,25.2032311 27.4042845,25.2650563 27.4042845,25.3585709 C27.4042845,25.4691728 27.4196514,25.6673864 27.4487845,25.9519689 C27.4775975,26.2390369 27.4910435,26.432901 27.4910435,26.5348039 C27.4910435,26.6938718 27.4679932,26.7743379 27.4234932,26.7743379 C27.3434572,26.7743379 27.2759068,26.6506874 27.2202018,26.4074252 C27.1660975,26.1650951 27.1392054,25.8478913 27.1392054,25.4607845 C26.7764824,25.096668 26.3833457,24.8064932 25.956914,24.5896388 C25.5308025,24.3743379 25.0931658,24.2659107 24.6468853,24.2659107 C23.8561299,24.2659107 23.1831874,24.560435 22.6335004,25.1510369 C22.0822126,25.7422602 21.8062486,26.5003184 21.8062486,27.4189981 C21.8062486,28.4259107 22.1196694,29.314765 22.7455507,30.0892893 C23.3720723,30.8641243 24.1336946,31.2515417 25.0304176,31.2515417 C25.3150255,31.2515417 25.603155,31.2036971 25.8916047,31.1120466 C26.181655,31.0213282 26.4950759,30.8781049 26.8315471,30.6864155 L26.8315471,28.1077748 C26.5933601,28.0906874 26.4198421,28.0785709 26.3081119,28.0692505 C25.959155,28.0291728 25.7853169,27.952435 25.7853169,27.842765 C25.7853169,27.7859107 25.863432,27.7557748 26.0167809,27.7557748 C26.1643673,27.7557748 26.2808996,27.761367 26.3657378,27.7678913 C26.804655,27.8092117 27.0290759,27.8287845 27.0380399,27.8287845 C27.1238385,27.8287845 27.2877522,27.8148039 27.5275399,27.7859107 C27.7686083,27.7567068 27.9325219,27.7436583 28.0183205,27.7436583 C28.1563025,27.7436583 28.2248133,27.7678913 28.2248133,27.818532" id="Fill-8" fill="#FEFEFE"></path>
                            <path d="M33.5232586,31.2354796 C33.5232586,31.3429748 33.4067263,31.4318291 33.1743018,31.5048388 C32.9418773,31.5778485 32.7510716,31.6154408 32.6034853,31.6154408 C32.440532,31.6154408 32.2862227,31.5489553 32.1463198,31.4178485 C32.0499565,31.3317903 31.9315032,31.1839068 31.7887191,30.9735767 L30.3781651,28.9373825 C30.3029313,28.8270913 30.2670752,28.7512854 30.2670752,28.7062369 C30.2670752,28.6549748 30.3307838,28.628567 30.4601219,28.628567 L30.6730176,28.628567 L30.9265716,28.628567 C31.3462802,28.628567 31.6894745,28.5462369 31.9535932,28.3806447 C32.3054313,28.157266 32.4808701,27.7940816 32.4808701,27.2917126 C32.4808701,26.7750524 32.30255,26.396334 31.9430284,26.149965 C31.6526579,25.9508194 31.2592011,25.8535767 30.7677802,25.8535767 C30.5228701,25.8535767 30.2894853,25.8731495 30.0657047,25.9126058 C30.0657047,26.0968388 30.0580212,26.4028583 30.0426543,26.8266252 C30.0282478,27.2513243 30.0212047,27.4787417 30.0212047,27.5116738 L30.0212047,29.6485282 C30.0212047,29.837732 30.0282478,30.1462369 30.0426543,30.5703146 C30.0580212,30.9950136 30.0657047,31.2187029 30.0657047,31.2373437 C30.2267371,31.2503922 30.4040968,31.2727612 30.5949025,31.301965 C30.785068,31.3317903 30.8814313,31.3926835 30.8814313,31.485266 C30.8814313,31.5191301 30.8177227,31.5349748 30.6896651,31.5349748 C30.6346004,31.5349748 30.4850932,31.5228583 30.2401831,31.5001786 C29.9933522,31.4768777 29.8227155,31.4647612 29.7292335,31.4647612 C29.6616831,31.4647612 29.4564709,31.4824699 29.1110356,31.516334 C28.9772155,31.5275184 28.8613234,31.5349748 28.7668809,31.5349748 C28.6522694,31.5349748 28.5943234,31.5191301 28.5943234,31.485266 C28.5943234,31.4253049 28.6724385,31.3787029 28.8286687,31.3373825 C29.0108306,31.3047612 29.1891507,31.2727612 29.3649097,31.2382757 C29.4119709,30.7554796 29.4359817,30.2267029 29.4359817,29.6569165 L29.4359817,27.5321786 C29.4359817,26.9679845 29.4119709,26.4364117 29.3639493,25.9377709 C29.1593773,25.9126058 29.005068,25.8936544 28.9029421,25.8796738 C28.6983701,25.8479845 28.5943234,25.7926835 28.5943234,25.7131495 C28.5943234,25.6606447 28.6772406,25.6354796 28.8392335,25.6354796 C28.9336759,25.6354796 29.0937478,25.645732 29.3175284,25.6712078 C29.5403486,25.6973049 29.6927371,25.7094214 29.7737335,25.7094214 C29.9366867,25.7094214 30.1822371,25.6973049 30.5110248,25.6712078 C30.8388522,25.645732 31.0837622,25.6354796 31.2467155,25.6354796 C31.7288522,25.6354796 32.1347946,25.7429748 32.4664637,25.9610718 C32.8647227,26.2173825 33.0651327,26.5861592 33.0651327,27.0670913 C33.0651327,27.5806447 32.8628018,28.0037903 32.4568594,28.3331107 C32.0518773,28.6624311 31.5639781,28.8261592 30.9960428,28.8261592 L32.4482155,30.7666641 C32.576273,30.9294602 32.671996,31.037266 32.7325032,31.0885282 C32.8474349,31.1867029 32.9658881,31.2354796 33.0875428,31.2354796 C33.1009888,31.2354796 33.1499709,31.2233631 33.234809,31.1950913 C33.3186867,31.1699262 33.3843162,31.1568777 33.4316975,31.1568777 C33.4925248,31.1568777 33.5232586,31.1839068 33.5232586,31.2354796" id="Fill-10" fill="#FEFEFE"></path>
                            <path d="M37.1462629,29.4281631 L36.1000327,26.8607068 L35.1213529,29.4281631 L37.1462629,29.4281631 Z M39.3242018,31.4867262 C39.2896263,31.5193476 39.2038277,31.5370563 39.0610435,31.5370563 C38.9934932,31.5370563 38.8404644,31.5258718 38.6003565,31.5025709 C38.361209,31.4792699 38.1867306,31.4677748 38.0775615,31.4677748 C38.0100112,31.4677748 37.8076802,31.4848621 37.4692881,31.5165515 C37.3341874,31.530532 37.2166946,31.5370563 37.1155291,31.5370563 C36.979468,31.5370563 36.8936694,31.5193476 36.8597342,31.4867262 C36.928245,31.4407456 36.9957953,31.3950757 37.0633457,31.3481631 C37.3341874,31.289134 37.5742953,31.2602408 37.782709,31.2602408 C37.7103565,30.9644738 37.5944644,30.6230369 37.4382342,30.2356194 C37.3245831,29.9597359 37.2426263,29.7546874 37.197486,29.6161243 L35.0464392,29.6161243 C34.8418673,30.1964738 34.6846766,30.7426485 34.5691047,31.2621049 C34.8015291,31.2872699 34.970245,31.3077748 35.0781335,31.3202019 C35.2141946,31.3807845 35.3470543,31.4360854 35.4773529,31.4876583 C35.4501406,31.5202796 35.375227,31.5370563 35.2526119,31.5370563 C35.1985076,31.5370563 35.07045,31.5258718 34.8668385,31.5025709 C34.6635471,31.4792699 34.5150004,31.4677748 34.4195975,31.4677748 C34.3453241,31.4677748 34.1516371,31.4848621 33.8410975,31.5165515 C33.7107989,31.530532 33.6067522,31.5370563 33.5267162,31.5370563 C33.4111442,31.5370563 33.3397522,31.5193476 33.3125399,31.4867262 C33.3666442,31.4407456 33.4274716,31.3950757 33.4959824,31.3481631 C33.7107989,31.289134 33.906727,31.2602408 34.0821658,31.2602408 C34.2460795,30.9178718 34.3635723,30.6621825 34.4368853,30.4928621 C34.5527773,30.2440078 34.6635471,29.9774447 34.772396,29.6965903 L35.9988673,26.6174447 C35.9188313,26.4254447 35.8512809,26.2657553 35.7955759,26.1393087 C35.7155399,25.9755806 35.6374248,25.8221049 35.5631514,25.6844738 L36.2226478,25.3955417 C36.3247737,25.7649398 36.4422665,26.1327845 36.5792881,26.5021825 C36.6401155,26.6547262 36.7848205,27.0169786 37.015004,27.5904932 L37.9232522,29.8509981 C38.0314608,30.1262602 38.1307054,30.3648621 38.2261083,30.5602796 C38.2658061,30.6575223 38.3842594,30.8896 38.5779464,31.2602408 C38.7274536,31.2602408 38.9172989,31.2928621 39.1526047,31.3584155 C39.2153529,31.4053282 39.2723385,31.4482019 39.3242018,31.4867262 L39.3242018,31.4867262 Z" id="Fill-12" fill="#FEFEFE"></path>
                            <path d="M45.3927212,25.7112854 C45.3927212,25.7684505 45.3078831,25.8206447 45.1449299,25.8647612 C44.9781349,25.908567 44.8209442,25.9321786 44.6723975,25.9321786 C44.6115701,26.3205282 44.5721924,26.7387029 44.5510629,27.187635 C44.5308939,27.6368777 44.520009,28.1196738 44.520009,28.629499 L44.520009,31.5039068 C44.520009,31.5946252 44.5046421,31.6424699 44.4691061,31.6424699 C44.4428543,31.6424699 44.4140414,31.6228971 44.3833076,31.588101 C44.3503327,31.5517515 44.3282428,31.5237903 44.3157572,31.5057709 L40.7173399,26.6150524 L40.7173399,29.1620039 L40.7368687,30.0791301 C40.7368687,30.2689553 40.7455126,30.445732 40.7628004,30.6103922 C40.7800881,30.7750524 40.8079406,30.9903534 40.8495594,31.2587806 C41.0384442,31.2671689 41.180268,31.2768 41.2756709,31.2889165 C41.571804,31.3289942 41.7222716,31.3936155 41.7222716,31.485266 C41.7222716,31.5321786 41.6643255,31.5554796 41.5493939,31.5554796 C41.4395845,31.5554796 41.3105665,31.5452272 41.1591385,31.5247223 C41.00675,31.5057709 40.8351529,31.484334 40.6449874,31.4656932 C40.5921637,31.4656932 40.4196061,31.4815379 40.1273147,31.5150913 C40.0127032,31.5275184 39.9144191,31.5359068 39.8334227,31.5359068 C39.7261745,31.5359068 39.6704694,31.517266 39.6704694,31.484334 C39.6704694,31.4187806 39.762991,31.3628583 39.949955,31.3196738 C40.1359586,31.2786641 40.2691385,31.2559845 40.3491745,31.2559845 C40.4109622,30.9536932 40.4522608,30.6545087 40.4762716,30.3587417 C40.5006025,30.0620427 40.5121277,29.7178097 40.5121277,29.3229359 L40.5121277,26.3727223 C40.390473,26.1508971 40.1881421,25.9685282 39.9025737,25.8312078 C39.7956457,25.7787029 39.7415414,25.7280621 39.7415414,25.6730718 C39.7415414,25.6466641 39.7754766,25.6345476 39.8449478,25.6345476 C39.8574335,25.6345476 39.9973363,25.6541204 40.2624155,25.6982369 C40.3635809,25.7140816 40.4618651,25.724334 40.5543867,25.724334 C40.644027,25.724334 40.7211817,25.7112854 40.7896924,25.6879845 L44.3157572,30.4242951 L44.3157572,28.0814602 C44.3157572,27.699635 44.3051924,27.3383146 44.2850234,27.0015379 C44.2645342,26.6638291 44.2309191,26.3071689 44.1835378,25.9321786 C44.0689263,25.9321786 43.9030917,25.916334 43.6869946,25.884334 C43.4712176,25.8498485 43.3610881,25.7908194 43.3610881,25.7028971 C43.3610881,25.6587806 43.4199946,25.6345476 43.5326853,25.6345476 C43.6156025,25.6345476 43.7651097,25.6494602 43.986009,25.6786641 C44.2059478,25.7094214 44.3493723,25.724334 44.4169227,25.724334 C44.4988795,25.724334 44.6038867,25.7140816 44.7332248,25.6973049 C45.0370414,25.6541204 45.2067176,25.6345476 45.2393723,25.6345476 C45.3405378,25.6345476 45.3927212,25.6597126 45.3927212,25.7112854" id="Fill-14" fill="#FEFEFE"></path>
                            <path d="M50.4663935,28.5068738 C50.4663935,27.6807767 50.2531777,27.0258641 49.8328288,26.5399612 C49.4086381,26.055301 48.8407029,25.8139029 48.1303036,25.8139029 C47.886354,25.8139029 47.6055878,25.8570874 47.2883252,25.9412816 C47.283523,26.4793786 47.2816022,26.9985243 47.2816022,27.5027573 L47.2816022,29.4454369 C47.2816022,30.2342524 47.283523,30.8385243 47.2883252,31.256699 C47.6270374,31.336233 47.935336,31.3756893 48.2122604,31.3756893 C48.9159367,31.3756893 49.4665842,31.1175146 49.8677245,30.6055146 C50.2669439,30.0900971 50.4663935,29.3892039 50.4663935,28.5068738 M51.1431777,28.5752233 C51.1431777,29.4985631 50.8800194,30.2286602 50.351782,30.7636505 C49.8241849,31.2980194 49.1243504,31.5636505 48.2516381,31.5636505 C48.1235806,31.5636505 47.9836777,31.5552621 47.8360914,31.5356893 C47.4022964,31.4757282 47.1669906,31.4459029 47.1263324,31.4459029 C46.9499331,31.4459029 46.7716129,31.4580194 46.5846489,31.4831845 C46.4005662,31.5095922 46.2027173,31.5366214 45.9936633,31.5636505 C45.8787317,31.5636505 45.8211058,31.528233 45.8211058,31.4552233 C45.8211058,31.3961942 45.9232317,31.3483495 46.1255626,31.3147961 C46.3272532,31.2821748 46.482523,31.2669515 46.5904115,31.2669515 C46.5990554,31.2278058 46.6019367,31.0041165 46.6019367,30.5999223 C46.6019367,30.1947961 46.6057784,29.8496311 46.6134619,29.5594563 C46.6134619,28.9147961 46.6105806,28.2766602 46.6086597,27.6403883 C46.604818,27.0059806 46.6000158,26.4352621 46.5932928,25.9300971 C46.4437856,25.9170485 46.3080446,25.8990291 46.1863899,25.8822524 C45.9434007,25.8412427 45.8211058,25.7850097 45.8211058,25.7138641 C45.8211058,25.6539029 45.8787317,25.6259417 45.9946237,25.6259417 C46.0746597,25.6259417 46.1767856,25.6306019 46.2981201,25.6464466 C46.662764,25.687767 46.9288036,25.7092039 47.0975194,25.7092039 C47.2547101,25.7092039 47.3994151,25.7026796 47.5351561,25.6905631 C47.993282,25.6464466 48.2401129,25.6259417 48.2737281,25.6259417 C49.185818,25.6259417 49.8926957,25.8794563 50.3930806,26.3877282 C50.8934655,26.8956893 51.1431777,27.6245437 51.1431777,28.5752233" id="Fill-16" fill="#FEFEFE"></path>
                            <path d="M63.1840133,31.4947728 C63.1840133,31.555666 63.101096,31.5845592 62.9362219,31.5845592 C62.789596,31.5845592 62.6189594,31.5715107 62.4243119,31.5454136 C62.2303047,31.5190058 62.0097255,31.4919767 61.7676968,31.4649476 C61.6626896,31.4649476 61.3934486,31.4929087 60.9625349,31.5500738 C60.7880565,31.5733748 60.6452723,31.5845592 60.5345025,31.5845592 C60.3869162,31.5845592 60.3126428,31.5621903 60.3126428,31.5162097 C60.3126428,31.4096466 60.4900025,31.3235883 60.8440817,31.259899 C60.9558119,31.2431223 61.1350924,31.2244816 61.3752004,31.2064621 C61.3752004,30.8855301 61.3723191,30.4859961 61.3684773,30.0050641 C61.3598335,29.5250641 61.3579126,29.2818019 61.3579126,29.2715495 L60.9999917,24.5998602 L58.9523514,30.379433 C58.9260996,30.4925204 58.8876824,30.5496854 58.8354989,30.5496854 C58.7826752,30.5496854 58.7285709,30.4925204 58.668704,30.379433 L56.4859629,25.7412971 L56.2909953,27.9412194 C56.2909953,28.3190058 56.2861932,28.7250641 56.2765888,29.1640544 C56.2295277,30.2473942 56.2051968,30.9277825 56.2051968,31.2064621 C56.4462651,31.2151612 56.6245853,31.2272777 56.7366356,31.2449864 C57.1067219,31.2943845 57.2940061,31.3788893 57.2940061,31.4947728 C57.2940061,31.555666 57.2110888,31.5845592 57.0481356,31.5845592 C56.9351248,31.5845592 56.7279917,31.5640544 56.4241752,31.5245981 C56.1213191,31.4845204 55.9324342,31.4649476 55.8552795,31.4649476 C55.7425888,31.4649476 55.5553047,31.4845204 55.291186,31.5245981 C55.0270673,31.5640544 54.8708371,31.5845592 54.8189737,31.5845592 C54.6800313,31.5845592 54.6115205,31.555666 54.6115205,31.4947728 C54.6115205,31.4031223 54.7302939,31.3319767 54.9681608,31.2813359 C55.2053874,31.2300738 55.3894701,31.2064621 55.5178478,31.2064621 C55.6305385,30.7603262 55.7301032,30.2352777 55.8159018,29.6291417 C55.8863335,29.1845592 55.9497219,28.6626175 56.0105493,28.0654913 L56.2833119,25.2724816 C56.1270817,24.8393942 55.9420385,24.5445592 55.7262615,24.3957437 C55.5274522,24.3087534 55.3376068,24.218967 55.155445,24.1254524 C55.155445,24.0561709 55.2325996,24.0216854 55.3894701,24.0216854 C55.4656644,24.0216854 55.6151716,24.035666 55.8370313,24.0645592 C56.0579306,24.090967 56.2199234,24.1040155 56.3239701,24.1040155 C56.4357004,24.1040155 56.5263011,24.090967 56.5957723,24.0626951 C56.7260709,24.4156272 56.8474054,24.7232 56.9591356,24.9872777 C57.0721464,25.2519767 57.1982831,25.531899 57.3372255,25.8264233 L59.0266248,29.3715883 L60.9289198,24.0654913 C61.0483335,24.1002874 61.2007219,24.1170641 61.3809629,24.1170641 C61.4571572,24.1170641 61.7580924,24.090967 62.2834486,24.0365981 C62.3509989,24.0459184 62.4195097,24.0524427 62.4889809,24.0626951 C62.4889809,24.2161709 62.3798119,24.3050252 62.162114,24.332365 C61.9421752,24.3565981 61.8041932,24.378035 61.7456068,24.3957437 L62.0577471,29.0087146 C62.0577471,29.3287146 62.0888011,29.682268 62.1473874,30.0687534 C62.2082147,30.4561709 62.2642399,30.836132 62.3170637,31.2064621 C62.5322004,31.2064621 62.73165,31.2338019 62.9122112,31.2887922 C63.0934126,31.3431612 63.1840133,31.4115107 63.1840133,31.4947728" id="Fill-18" fill="#FEFEFE"></path>
                            <path d="M67.0533043,29.4281631 L66.0080345,26.8607068 L65.0293547,29.4281631 L67.0533043,29.4281631 Z M69.2322036,31.4867262 C69.1985885,31.5193476 69.1108691,31.5370563 68.9690453,31.5370563 C68.901495,31.5370563 68.7484662,31.5258718 68.5073978,31.5025709 C68.2682504,31.4792699 68.0937719,31.4677748 67.9865237,31.4677748 C67.9170525,31.4677748 67.7147216,31.4848621 67.3782504,31.5165515 C67.2421892,31.530532 67.1246964,31.5370563 67.0225705,31.5370563 C66.8884302,31.5370563 66.8026317,31.5193476 66.767736,31.4867262 C66.8372072,31.4407456 66.9037971,31.3950757 66.9703871,31.3481631 C67.2421892,31.289134 67.4813367,31.2602408 67.6907108,31.2602408 C67.6173978,30.9644738 67.5024662,30.6230369 67.3475165,30.2356194 C67.2325849,29.9597359 67.1496676,29.7546874 67.1045273,29.6161243 L64.954441,29.6161243 C64.7508295,30.1964738 64.5926784,30.7426485 64.476146,31.2621049 C64.7085705,31.2872699 64.8792072,31.3077748 64.9870957,31.3202019 C65.1221964,31.3807845 65.2540957,31.4360854 65.3853547,31.4876583 C65.3581424,31.5202796 65.2829086,31.5370563 65.1596532,31.5370563 C65.1055489,31.5370563 64.9774914,31.5258718 64.7758007,31.5025709 C64.5705885,31.4792699 64.4220417,31.4677748 64.3275993,31.4677748 C64.2533259,31.4677748 64.0596388,31.4848621 63.7481388,31.5165515 C63.6178403,31.530532 63.514754,31.5370563 63.434718,31.5370563 C63.3181856,31.5370563 63.2458331,31.5193476 63.2208619,31.4867262 C63.274646,31.4407456 63.3364338,31.3950757 63.4030237,31.3481631 C63.6178403,31.289134 63.8147288,31.2602408 63.9901676,31.2602408 C64.1531209,30.9178718 64.2706137,30.6621825 64.3468079,30.4928621 C64.4607791,30.2440078 64.5715489,29.9774447 64.6813583,29.6965903 L65.9068691,26.6174447 C65.8258727,26.4254447 65.7592827,26.2657553 65.7045381,26.1393087 C65.6235417,25.9755806 65.5454266,25.8221049 65.4711532,25.6844738 L66.1316101,25.3955417 C66.2327755,25.7649398 66.3512288,26.1327845 66.4872899,26.5021825 C66.5481173,26.6547262 66.6918619,27.0169786 66.9230058,27.5904932 L67.831254,29.8509981 C67.9385022,30.1262602 68.0377468,30.3648621 68.1350705,30.5602796 C68.1738079,30.6575223 68.2913007,30.8896 68.4869086,31.2602408 C68.634495,31.2602408 68.8253007,31.2928621 69.0606065,31.3584155 C69.1223942,31.4053282 69.1793799,31.4482019 69.2322036,31.4867262 L69.2322036,31.4867262 Z" id="Fill-20" fill="#FEFEFE"></path>
                            <path d="M74.4692773,25.7331883 C74.4692773,25.7791689 74.3873205,25.8239068 74.2272486,25.8698874 C74.0326011,25.908101 73.9224716,25.9314019 73.9042234,25.9382369 C73.7614392,26.1159456 73.6199356,26.3039068 73.4781119,26.5070913 C73.3836694,26.651868 73.2591335,26.8522563 73.1038637,27.1067029 L72.1418313,28.6113243 L72.1418313,29.6778874 C72.1418313,29.9230136 72.1514356,30.2318291 72.1668025,30.6071301 C72.1840903,30.981499 72.1917737,31.2030136 72.1917737,31.268567 C72.354727,31.2825476 72.4754212,31.293732 72.5573781,31.3080233 C72.8070903,31.3471689 72.9322665,31.4108583 72.9322665,31.4950524 C72.9322665,31.5351301 72.8707989,31.5559456 72.7491442,31.5559456 C72.6748709,31.5559456 72.5263241,31.540101 72.3047845,31.509965 C72.081004,31.4810718 71.9257342,31.4661592 71.8399356,31.4661592 C71.7243637,31.4661592 71.5508457,31.4810718 71.3193817,31.509965 C71.0859968,31.540101 70.9460939,31.5559456 70.8980723,31.5559456 C70.7773781,31.5559456 70.7165507,31.5314019 70.7165507,31.485732 C70.7165507,31.4071301 70.8410867,31.3443728 71.0917594,31.2987029 C71.1717953,31.2862757 71.3011335,31.2722951 71.4756119,31.2592466 C71.5034644,30.9908194 71.5197917,30.7466252 71.5274752,30.525732 C71.5351586,30.3057709 71.5361191,30.0224311 71.5361191,29.6741592 L71.5361191,28.661033 L69.9088277,25.9345087 C69.7958169,25.9220816 69.6908097,25.9071689 69.5954068,25.8866641 C69.419968,25.8481398 69.333209,25.7903534 69.333209,25.7117515 C69.333209,25.6667029 69.3927558,25.644334 69.5172917,25.644334 C69.5906047,25.644334 69.7244248,25.6545864 69.9203529,25.6769553 C70.1178817,25.6987029 70.2481802,25.7098874 70.316691,25.7098874 C70.3829608,25.7098874 70.5113385,25.6987029 70.6973421,25.6769553 C70.8833457,25.6545864 71.0165255,25.644334 71.0975219,25.644334 C71.2130939,25.644334 71.2700795,25.6667029 71.2700795,25.7117515 C71.2700795,25.7903534 71.1717953,25.8481398 70.9761874,25.8866641 C70.8535723,25.9071689 70.7360795,25.9220816 70.619227,25.9345087 L72.0464284,28.4025476 L72.7741155,27.2256932 C72.8890471,27.0364893 72.9988565,26.8317515 73.106745,26.6061981 C73.1867809,26.444334 73.2853853,26.2215767 73.3980759,25.9382369 C73.2351227,25.9192854 73.0769716,25.8969165 72.9197809,25.8698874 C72.7917234,25.8378874 72.7280147,25.7884893 72.7280147,25.7220039 C72.7280147,25.6704311 72.8099716,25.644334 72.9786874,25.644334 C73.0865759,25.644334 73.1976658,25.6499262 73.3045939,25.6620427 C73.4124824,25.6750913 73.5059644,25.6834796 73.5879212,25.6900039 C73.6679572,25.6900039 73.794414,25.6816155 73.9621694,25.6667029 C74.1308853,25.6517903 74.2310903,25.644334 74.2560615,25.644334 C74.3988457,25.644334 74.4692773,25.6732272 74.4692773,25.7331883" id="Fill-22" fill="#FEFEFE"></path>
                            <path d="M78.2623421,29.4281631 L77.2180327,26.8607068 L76.2383924,29.4281631 L78.2623421,29.4281631 Z M80.4422018,31.4867262 C80.4076263,31.5193476 80.3208673,31.5370563 80.1780831,31.5370563 C80.1105327,31.5370563 79.957504,31.5258718 79.717396,31.5025709 C79.4772881,31.4792699 79.3047306,31.4677748 79.1936406,31.4677748 C79.1270507,31.4677748 78.9256802,31.4848621 78.5872881,31.5165515 C78.451227,31.530532 78.3337342,31.5370563 78.2316083,31.5370563 C78.0955471,31.5370563 78.010709,31.5193476 77.9780543,31.4867262 C78.0452845,31.4407456 78.1137953,31.3950757 78.1813457,31.3481631 C78.451227,31.289134 78.6913349,31.2602408 78.9016694,31.2602408 C78.827396,30.9644738 78.711504,30.6230369 78.5565543,30.2356194 C78.4406622,29.9597359 78.3596658,29.7546874 78.3145255,29.6161243 L76.1634788,29.6161243 C75.9598673,30.1964738 75.8017162,30.7426485 75.6861442,31.2621049 C75.9182486,31.2872699 76.088245,31.3077748 76.1961335,31.3202019 C76.333155,31.3807845 76.4650543,31.4360854 76.5953529,31.4876583 C76.5671802,31.5202796 76.4913061,31.5370563 76.3706119,31.5370563 C76.3165076,31.5370563 76.18845,31.5258718 75.9848385,31.5025709 C75.7805867,31.4792699 75.6320399,31.4677748 75.5385579,31.4677748 C75.4623637,31.4677748 75.2686766,31.4848621 74.9581371,31.5165515 C74.8297594,31.530532 74.7228313,31.5370563 74.6427953,31.5370563 C74.5281838,31.5370563 74.4558313,31.5193476 74.4298996,31.4867262 C74.4836838,31.4407456 74.5454716,31.3950757 74.6130219,31.3481631 C74.8278385,31.289134 75.024727,31.2602408 75.2001658,31.2602408 C75.3621586,30.9178718 75.4796514,30.6621825 75.5548853,30.4928621 C75.6707773,30.2440078 75.7805867,29.9774447 75.890396,29.6965903 L77.1168673,26.6174447 C77.0358709,26.4254447 76.9683205,26.2657553 76.9135759,26.1393087 C76.8325795,25.9755806 76.7554248,25.8221049 76.680191,25.6844738 L77.338727,25.3955417 C77.4418133,25.7649398 77.5602665,26.1327845 77.6963277,26.5021825 C77.7542737,26.6547262 77.9028205,27.0169786 78.1310831,27.5904932 L79.0412522,29.8509981 C79.1485004,30.1262602 79.2487054,30.3648621 79.3431478,30.5602796 C79.3828457,30.6575223 79.5012989,30.8896 79.694986,31.2602408 C79.8435327,31.2602408 80.0343385,31.2928621 80.2706047,31.3584155 C80.3323924,31.4053282 80.3874572,31.4482019 80.4422018,31.4867262 L80.4422018,31.4867262 Z" id="Fill-24" fill="#FEFEFE"></path>
                            <path d="M86.5088004,25.7112854 C86.5088004,25.7684505 86.4258831,25.8206447 86.261009,25.8647612 C86.094214,25.908567 85.9389442,25.9321786 85.7894371,25.9321786 C85.7295701,26.3205282 85.6882716,26.7387029 85.6681025,27.187635 C85.6466529,27.6368777 85.6370486,28.1196738 85.6370486,28.629499 L85.6370486,31.5039068 C85.6370486,31.5946252 85.6216817,31.6424699 85.5851853,31.6424699 C85.5598939,31.6424699 85.5310809,31.6228971 85.4993867,31.588101 C85.4692932,31.5517515 85.4462428,31.5237903 85.4327968,31.5057709 L81.8343795,26.6150524 L81.8343795,29.1620039 L81.8539083,30.0791301 C81.8539083,30.2689553 81.8635126,30.445732 81.8798399,30.6103922 C81.8971277,30.7750524 81.9240198,30.9903534 81.9665989,31.2587806 C82.1545234,31.2671689 82.2973076,31.2768 82.3927104,31.2889165 C82.6907644,31.3289942 82.8380306,31.3936155 82.8380306,31.485266 C82.8380306,31.5321786 82.7804047,31.5554796 82.6664335,31.5554796 C82.558545,31.5554796 82.4263255,31.5452272 82.2752176,31.5247223 C82.1228291,31.5057709 81.9521924,31.484334 81.7629874,31.4656932 C81.7082428,31.4656932 81.5356853,31.4815379 81.2453147,31.5150913 C81.1297428,31.5275184 81.0314586,31.5359068 80.9504622,31.5359068 C80.843214,31.5359068 80.787509,31.517266 80.787509,31.484334 C80.787509,31.4187806 80.880991,31.3628583 81.0669946,31.3196738 C81.2520378,31.2786641 81.3871385,31.2559845 81.466214,31.2559845 C81.5280018,30.9536932 81.5683399,30.6545087 81.5942716,30.3587417 C81.6166817,30.0620427 81.6291673,29.7178097 81.6291673,29.3229359 L81.6291673,26.3727223 C81.5075126,26.1508971 81.3051817,25.9685282 81.0196133,25.8312078 C80.9126853,25.7787029 80.8585809,25.7280621 80.8585809,25.6730718 C80.8585809,25.6466641 80.8915558,25.6345476 80.961027,25.6345476 C80.9735126,25.6345476 81.1143759,25.6541204 81.3775342,25.6982369 C81.4786996,25.7140816 81.5789047,25.724334 81.6743076,25.724334 C81.762027,25.724334 81.8382212,25.7112854 81.9076924,25.6879845 L85.4327968,30.4242951 L85.4327968,28.0814602 C85.4327968,27.699635 85.422232,27.3383146 85.4020629,27.0015379 C85.3815737,26.6638291 85.3479586,26.3071689 85.3005773,25.9321786 C85.1869263,25.9321786 85.0201313,25.916334 84.8040342,25.884334 C84.5882572,25.8498485 84.4790881,25.7908194 84.4790881,25.7028971 C84.4790881,25.6587806 84.5379946,25.6345476 84.6506853,25.6345476 C84.7316817,25.6345476 84.8831097,25.6494602 85.1030486,25.6786641 C85.3239478,25.7094214 85.4664119,25.724334 85.5349227,25.724334 C85.6159191,25.724334 85.7199658,25.7140816 85.8502644,25.6973049 C86.1540809,25.6541204 86.3237572,25.6345476 86.3564119,25.6345476 C86.4575773,25.6345476 86.5088004,25.6597126 86.5088004,25.7112854" id="Fill-26" fill="#FEFEFE"></path>
                            <path d="M37.3427353,13.740334 C37.2262029,13.8189359 37.1055086,13.8891495 36.9771309,13.9519068 C37.6571165,15.3617709 38.8650194,16.4957515 40.3636129,17.1348194 C40.4318036,17.019868 40.5089583,16.9114408 40.592836,16.805499 C39.146746,16.2040233 37.9839835,15.1063922 37.3427353,13.740334" id="Fill-28" fill="#FEFEFE"></path>
                            <path d="M42.2993309,6.80292039 C42.0294496,6.74016311 41.7710935,6.64198835 41.5338669,6.51367767 C39.9613201,6.97969709 38.7009137,8.11088155 38.1233741,9.55554175 C38.3087374,9.81123107 38.4512014,10.0927068 38.5466043,10.3949981 C38.9179712,8.57410485 40.4133633,7.13969709 42.2993309,6.80292039" id="Fill-30" fill="#FEFEFE"></path>
                            <path d="M38.5447795,12.1511146 C38.4455349,12.4655223 38.2912255,12.7594252 38.0975385,13.0213282 C38.6488263,14.4603961 39.8762579,15.5971728 41.4190313,16.0920854 C41.6745061,15.9404738 41.9549522,15.8227262 42.2539665,15.7478524 C40.3824054,15.3970951 38.9071824,13.9645515 38.5447795,12.1511146" id="Fill-32" fill="#FEFEFE"></path>
                            <path d="M37.019454,8.60958447 C37.1446302,8.67234175 37.2634036,8.74535146 37.3789755,8.82488544 C38.0355906,7.47373981 39.2069971,6.39474951 40.6562885,5.80911845 C40.5685691,5.70814757 40.4875727,5.59847767 40.4132993,5.48632233 C38.9207885,6.10861359 37.7135259,7.22115728 37.019454,8.60958447" id="Fill-34" fill="#FEFEFE"></path>
                            <path d="M44.6030543,6.4719534 C44.3706299,6.60492427 44.1209176,6.7096233 43.8548781,6.78076893 C45.9066802,7.08399223 47.5243673,8.68026408 47.7964896,10.6825942 C47.8755651,10.3296621 48.01995,9.99847767 48.2149176,9.70364272 C47.652745,8.14216699 46.2982162,6.92492427 44.6030543,6.4719534" id="Fill-36" fill="#FEFEFE"></path>
                            <path d="M49.3076327,13.9444194 C49.1830968,13.8770019 49.0636831,13.8002641 48.9490716,13.7170019 C48.2876543,15.1467495 47.0534996,16.2853903 45.5222514,16.8741282 C45.6022874,16.9797592 45.6746399,17.0909825 45.7412299,17.2062447 C47.3233809,16.5839534 48.6026759,15.4133126 49.3076327,13.9444194" id="Fill-38" fill="#FEFEFE"></path>
                            <path d="M43.8994101,15.7728 C44.1913813,15.8560621 44.4663849,15.9806447 44.7160971,16.1369165 C46.3561942,15.6606447 47.6607806,14.4648388 48.2120683,12.9397126 C48.0135791,12.6374214 47.8669532,12.2997126 47.7888381,11.9355961 C47.4959065,13.8978485 45.910554,15.4565282 43.8994101,15.7728" id="Fill-40" fill="#FEFEFE"></path>
                            <path d="M52.3641745,13.9256854 C51.9089299,14.1810641 51.3816529,14.3280155 50.8185198,14.3280155 C50.3876061,14.3280155 49.9759011,14.2410252 49.6006924,14.0847534 C48.8621205,15.6145398 47.5306421,16.8383068 45.8838219,17.4925981 C46.0390917,17.8498796 46.1248903,18.2428893 46.1248903,18.6545398 C46.1248903,19.1587728 45.9968327,19.6359767 45.7692104,20.0525981 C48.9229478,19.2075495 51.4232716,16.8833553 52.3641745,13.9256854" id="Fill-42" fill="#FEFEFE"></path>
                            <path d="M40.4979133,20.3772272 C36.9948989,19.4650718 34.26055,16.7916738 33.4400212,13.4307417 C33.2917946,13.2952854 33.1595752,13.1436738 33.0420824,12.9790136 C33.762086,17.0312078 37.017309,20.2498485 41.1583701,21.0423922 C40.9048162,20.8553631 40.681996,20.6298097 40.4979133,20.3772272" id="Fill-44" fill="#FEFEFE"></path>
                            <path d="M33.4727399,9.07669126 C34.3259234,5.80740971 36.9978442,3.2064 40.4137795,2.28647767 C40.6026644,1.99568155 40.8418119,1.73812816 41.1196968,1.52593398 C37.0055277,2.33059417 33.7775169,5.52966214 33.0475888,9.55389515 C33.1727651,9.3808466 33.3145888,9.2208466 33.4727399,9.07669126" id="Fill-46" fill="#FEFEFE"></path>
                            <path d="M52.7894536,13.640699 C51.8850471,16.9848544 49.0725831,19.6197282 45.5138637,20.4420971 C45.3217773,20.6956117 45.0906335,20.9155728 44.8281155,21.0988738 C49.0242414,20.4225243 52.3671838,17.2672621 53.2021191,13.241165 C53.0766227,13.3862524 52.9389608,13.5189126 52.7894536,13.640699" id="Fill-48" fill="#FEFEFE"></path>
                            <path d="M45.6045284,2.21868738 C49.1238701,3.06746408 51.8985572,5.68897864 52.7914385,9.01356117 C52.9495896,9.13969709 53.095255,9.28292039 53.224273,9.43546408 C52.4347982,5.3680466 49.0870536,2.16711456 44.8678773,1.47119223 C45.1553665,1.67686214 45.4050788,1.92944466 45.6045284,2.21868738" id="Fill-50" fill="#FEFEFE"></path>
                            <path d="M45.6927601,5.41533204 C45.6223284,5.53121553 45.5442133,5.6399534 45.4603356,5.74465243 C47.0242385,6.32655534 48.2814435,7.48041942 48.9534255,8.93160388 C49.0645155,8.84834175 49.1868104,8.77067184 49.3094255,8.70418641 C48.5977457,7.21758447 47.2998824,6.03575922 45.6927601,5.41533204" id="Fill-52" fill="#FEFEFE"></path>
                            <path d="M33.9075914,8.74892427 C34.3926094,8.44383689 34.9663072,8.26612816 35.5841849,8.26612816 C35.9862856,8.26612816 36.3691777,8.34100194 36.7229367,8.47676893 C37.4461417,7.02838058 38.7023863,5.86333204 40.2528432,5.20748738 C40.0501921,4.8079534 39.9355806,4.35964272 39.9355806,3.88523495 C39.9355806,3.45773981 40.0290626,3.04888544 40.1977784,2.6791767 C37.1810626,3.59443883 34.8110374,5.87544854 33.9075914,8.74892427" id="Fill-54" fill="#FEFEFE"></path>
                            <path d="M52.3673439,8.72627573 C51.4341245,5.78351845 48.9590921,3.4649165 45.8303259,2.60619806 C46.0192108,2.99330485 46.1251784,3.42763495 46.1251784,3.88619806 C46.1251784,4.3304699 46.0240129,4.75330485 45.8447324,5.13419806 C47.512682,5.78445049 48.8595273,7.01598447 49.6048223,8.56347961 C49.9781101,8.40813981 50.3878942,8.32208155 50.8188079,8.32208155 C51.3838619,8.32208155 51.9111388,8.46996505 52.3673439,8.72627573" id="Fill-56" fill="#FEFEFE"></path>
                            <path d="M40.2540597,19.9800544 C40.0504482,19.5786563 39.9358367,19.1303456 39.9358367,18.6550058 C39.9358367,18.2135301 40.0341209,17.7944233 40.2114806,17.4172583 C38.6488583,16.7455689 37.3884518,15.5544233 36.6780525,14.0796272 C36.3387,14.2042097 35.9702144,14.2725592 35.5854014,14.2725592 C34.9521568,14.2725592 34.3602108,14.0880155 33.8684698,13.7680155 C34.7466245,16.7182291 37.1659518,19.0632388 40.2540597,19.9800544" id="Fill-58" fill="#FEFEFE"></path>
                            <path d="M43.0311478,6.06316117 C41.792191,6.06316117 40.7885399,5.08918058 40.7885399,3.88685049 C40.7885399,2.68638447 41.792191,1.71053981 43.0311478,1.71053981 C44.2691442,1.71053981 45.2737558,2.68638447 45.2737558,3.88685049 C45.2737558,5.08918058 44.2691442,6.06316117 43.0311478,6.06316117 M43.0311478,1.19853981 C41.5047018,1.19853981 40.2638241,2.4055301 40.2638241,3.88685049 C40.2638241,5.36692816 41.5047018,6.57205437 43.0311478,6.57205437 C44.5572737,6.57205437 45.7975112,5.36692816 45.7975112,3.88685049 C45.7975112,2.4055301 44.5572737,1.19853981 43.0311478,1.19853981" id="Fill-60" fill="#FEFEFE"></path>
                            <path d="M41.3861845,3.97474175 C41.3861845,3.97474175 41.5203248,1.92363495 43.6115047,2.49466408 C43.6115047,2.49466408 45.0723212,3.23377087 44.5629723,4.56037282 C44.5629723,4.56037282 44.054904,5.4231301 43.260627,5.39330485 C43.260627,5.39330485 43.6508824,3.23097476 43.007073,3.54258641 C43.007073,3.54258641 41.8161378,3.1952466 41.3861845,3.97474175" id="Fill-62" fill="#FEFEFE"></path>
                            <path d="M32.1303446,11.3217243 C32.1303446,5.4287534 37.070805,0.63558835 43.1400928,0.63558835 C49.2135424,0.63558835 54.152082,5.4287534 54.152082,11.3217243 C54.152082,17.2137631 49.2135424,22.0069282 43.1400928,22.0069282 C37.070805,22.0069282 32.1303446,17.2137631 32.1303446,11.3217243 M31.4756504,11.3217243 C31.4756504,17.5626563 36.7071216,22.642268 43.1400928,22.642268 C49.5740245,22.642268 54.8077367,17.5626563 54.8077367,11.3217243 C54.8077367,5.07892816 49.5740245,0.000248543689 43.1400928,0.000248543689 C36.7071216,0.000248543689 31.4756504,5.07892816 31.4756504,11.3217243" id="Fill-64" fill="#FEFEFE"></path>
                            <path d="M35.5854335,13.4475806 C34.3474371,13.4475806 33.3418651,12.472668 33.3418651,11.2712699 C33.3418651,10.0680078 34.3474371,9.09402718 35.5854335,9.09402718 C36.8243903,9.09402718 37.8280414,10.0680078 37.8280414,11.2712699 C37.8280414,12.472668 36.8243903,13.4475806 35.5854335,13.4475806 M35.5854335,8.58389126 C34.0589874,8.58389126 32.8181097,9.78808544 32.8181097,11.2712699 C32.8181097,12.7513476 34.0589874,13.9564738 35.5854335,13.9564738 C37.1115594,13.9564738 38.3527572,12.7513476 38.3527572,11.2712699 C38.3527572,9.78808544 37.1115594,8.58389126 35.5854335,8.58389126" id="Fill-66" fill="#FEFEFE"></path>
                            <path d="M50.8186799,13.5028816 C49.5816439,13.5028816 48.5760719,12.5279689 48.5760719,11.3256388 C48.5760719,10.1223767 49.5816439,9.14839612 50.8186799,9.14839612 C52.0585971,9.14839612 53.0622482,10.1223767 53.0622482,11.3256388 C53.0622482,12.5279689 52.0585971,13.5028816 50.8186799,13.5028816 M50.8186799,8.63826019 C49.2935144,8.63826019 48.0523165,9.84338641 48.0523165,11.3256388 C48.0523165,12.8057165 49.2935144,14.0127068 50.8186799,14.0127068 C52.3448058,14.0127068 53.5866439,12.8057165 53.5866439,11.3256388 C53.5866439,9.84338641 52.3448058,8.63826019 50.8186799,8.63826019" id="Fill-68" fill="#FEFEFE"></path>
                            <path d="M33.9405342,11.3583223 C33.9405342,11.3583223 34.073714,9.30721553 36.1658543,9.8791767 C36.1658543,9.8791767 37.6266709,10.6173515 37.1173219,11.9439534 C37.1173219,11.9439534 36.6092536,12.8076427 35.8149766,12.7759534 C35.8149766,12.7759534 36.205232,10.6145553 35.5614227,10.9280311 C35.5614227,10.9280311 34.369527,10.5778951 33.9405342,11.3583223" id="Fill-70" fill="#FEFEFE"></path>
                            <path d="M43.0311478,20.8320621 C41.792191,20.8320621 40.7885399,19.8571495 40.7885399,18.6548194 C40.7885399,17.4543534 41.792191,16.4775767 43.0311478,16.4775767 C44.2691442,16.4775767 45.2737558,17.4543534 45.2737558,18.6548194 C45.2737558,19.8571495 44.2691442,20.8320621 43.0311478,20.8320621 M43.0311478,15.9683728 C41.5047018,15.9683728 40.2638241,17.1744311 40.2638241,18.6548194 C40.2638241,20.1358291 41.5047018,21.3418874 43.0311478,21.3418874 C44.5572737,21.3418874 45.7975112,20.1358291 45.7975112,18.6548194 C45.7975112,17.1744311 44.5572737,15.9683728 43.0311478,15.9683728" id="Fill-72" fill="#FEFEFE"></path>
                            <path d="M41.3861845,18.7428039 C41.3861845,18.7428039 41.5203248,16.690765 43.6115047,17.2645903 C43.6115047,17.2645903 45.0723212,18.0036971 44.5629723,19.329367 C44.5629723,19.329367 44.054904,20.1921243 43.260627,20.161367 C43.260627,20.161367 43.6508824,17.9990369 43.007073,18.3106485 C43.007073,18.3106485 41.8161378,17.9633087 41.3861845,18.7428039" id="Fill-74" fill="#FEFEFE"></path>
                            <path d="M49.0774813,11.5187883 C49.0774813,11.5187883 49.2106612,9.46674951 51.3028014,10.0377786 C51.3028014,10.0377786 52.7626576,10.7768854 52.2542691,12.1044194 C52.2542691,12.1044194 51.7462007,12.9662447 50.9528842,12.9354874 C50.9528842,12.9354874 51.3412187,10.7731573 50.6983698,11.086633 C50.6983698,11.086633 49.5074345,10.7383612 49.0774813,11.5187883" id="Fill-76" fill="#FEFEFE"></path>
                            <g id="Group-80" transform="translate(87.079137, 25.343689)">
                                <mask id="mask-2" fill="white">
                                    <use xlink:href="#path-1"></use>
                                </mask>
                                <g id="Clip-79"></g>
                                <path d="M0.834743165,0.646431068 L0.834743165,1.07019806 C0.912858273,1.07392621 0.989052518,1.06087767 1.0604446,1.03198447 C1.13375755,1.00371262 1.17121439,0.934741748 1.17121439,0.826003883 C1.17121439,0.770081553 1.15296619,0.72503301 1.11518921,0.68464466 C1.07773237,0.646431068 1.0188259,0.626858252 0.937829496,0.626858252 C0.908056115,0.626858252 0.873160432,0.632450485 0.834743165,0.646431068 L0.834743165,0.646431068 Z M0.834743165,1.12083883 L0.834743165,1.39299417 C0.834743165,1.44363495 0.83762446,1.4809165 0.846268345,1.50359612 C0.85491223,1.52689709 0.869318705,1.54180971 0.889807914,1.54833398 C0.909976978,1.55392621 0.943592086,1.55858641 0.990973381,1.56045049 L0.990973381,1.60177087 L0.542451799,1.60177087 L0.542451799,1.56045049 C0.591753957,1.56045049 0.626329496,1.55579029 0.646818705,1.5464699 C0.665066906,1.53528544 0.679473381,1.52037282 0.68427554,1.5008 C0.687156835,1.47998447 0.690038129,1.44363495 0.690038129,1.39299417 L0.690038129,0.768217476 C0.690038129,0.720372816 0.685235971,0.686819417 0.676592086,0.665071845 C0.66698777,0.642702913 0.653541727,0.62872233 0.633372662,0.623130097 C0.612883453,0.616605825 0.58214964,0.613809709 0.542451799,0.613809709 L0.542451799,0.576217476 L0.852991367,0.576217476 C0.940710791,0.576217476 1.00634029,0.579013592 1.05180072,0.583673786 C1.09694101,0.587401942 1.13759928,0.59672233 1.17313525,0.615673786 C1.20867122,0.630586408 1.24356691,0.655751456 1.27814245,0.69241165 C1.31111727,0.729693204 1.32936547,0.778469903 1.32936547,0.839052427 C1.32936547,0.906469903 1.30631511,0.963634951 1.26181511,1.01054757 C1.21571439,1.05808155 1.1472036,1.08511068 1.05660288,1.09567379 L1.25989424,1.36130485 C1.26373597,1.36689709 1.26853813,1.37248932 1.27334029,1.38274175 C1.31591942,1.43804272 1.3485741,1.47905243 1.37674676,1.50173204 C1.40363885,1.52410097 1.42861007,1.53901359 1.4507,1.5464699 C1.47503094,1.55392621 1.50000216,1.55858641 1.52689424,1.56045049 L1.52689424,1.60177087 L1.27622158,1.60177087 C1.26949856,1.58965437 1.2646964,1.58219806 1.26373597,1.58033398 C1.25989424,1.57194563 1.25221079,1.5632466 1.24260647,1.55206214 C1.23204173,1.53901359 1.22147698,1.52503301 1.20771079,1.50825631 C1.20386906,1.5008 1.19906691,1.49147961 1.19138345,1.48278058 C1.18273957,1.47439223 1.17697698,1.46786796 1.17697698,1.46413981 L0.920541727,1.12083883 L0.834743165,1.12083883 Z M0.948394245,0.280450485 C0.832822302,0.280450485 0.723973381,0.300333981 0.620566906,0.341343689 C0.517480576,0.385460194 0.425919424,0.445421359 0.34396259,0.521848544 C0.26488705,0.599518447 0.203099281,0.689615534 0.158919424,0.791518447 C0.113458993,0.893421359 0.0904086331,0.999052427 0.0904086331,1.11338252 C0.0904086331,1.2631301 0.130746763,1.4032466 0.206941007,1.5296932 C0.284095683,1.65986796 0.387502158,1.76083883 0.520361871,1.83478058 C0.653541727,1.91058641 0.795045324,1.94786796 0.948394245,1.94786796 C1.1027036,1.94786796 1.24740863,1.91058641 1.38058849,1.83478058 C1.5134482,1.7599068 1.61749496,1.65800388 1.69561007,1.5296932 C1.77276475,1.4032466 1.81054173,1.2631301 1.81054173,1.11338252 C1.81054173,0.995324272 1.78941223,0.887829126 1.7439518,0.78872233 C1.6994518,0.686819417 1.63798417,0.59672233 1.55986906,0.521848544 C1.47791223,0.445421359 1.38635108,0.385460194 1.28102374,0.341343689 C1.17505612,0.300333981 1.06524676,0.280450485 0.948394245,0.280450485 L0.948394245,0.280450485 Z M0.948394245,0.21241165 C1.07581151,0.21241165 1.19522518,0.233848544 1.30823597,0.281382524 C1.42092662,0.326431068 1.51921079,0.390120388 1.60500935,0.472450485 C1.69080791,0.555712621 1.75931871,0.652023301 1.80766043,0.762314563 C1.85472158,0.871052427 1.87905252,0.9888 1.87905252,1.11151845 C1.87905252,1.27431456 1.83743381,1.42592621 1.75451655,1.5632466 C1.67159928,1.70180971 1.5579482,1.81334369 1.41516403,1.89287767 C1.27237986,1.97427573 1.11711007,2.0143534 0.948394245,2.0143534 C0.823217986,2.0143534 0.704444604,1.99105243 0.591753957,1.94413981 C0.477142446,1.89660583 0.378538129,1.8329165 0.292739568,1.74965437 C0.207901439,1.66546019 0.141631655,1.56821748 0.0952107914,1.45854757 C0.0459086331,1.34825631 0.0228582734,1.23206214 0.0228582734,1.11151845 C0.0228582734,0.94872233 0.0644769784,0.798042718 0.147394245,0.66041165 C0.230311511,0.521848544 0.34396259,0.413421359 0.486746763,0.332023301 C0.630491367,0.25248932 0.782559712,0.21241165 0.948394245,0.21241165 L0.948394245,0.21241165 Z" id="Fill-78" fill="#FEFEFE" mask="url(#mask-2)"></path>
                            </g>
                        </g>
                    </g>
                </g>
            </g>
        </g>
    </g>
</svg>