<?xml version="1.0" encoding="UTF-8"?>
<svg width="135px" height="32px" viewBox="0 0 135 32" version="1.1" xmlns="http://www.w3.org/2000/svg" xmlns:xlink="http://www.w3.org/1999/xlink">
    <!-- Generator: Sketch 45.1 (43504) - http://www.bohemiancoding.com/sketch -->
    <title>Logo Vidanta Blanco</title>
    <desc>Created with Sketch.</desc>
    <defs>
        <polygon id="path-1" points="0 0.354192593 0 8.02636341 12.6124043 8.02636341 12.6124043 0.354192593 2.38642326e-20 0.354192593"></polygon>
    </defs>
    <g id="01-Homepage" stroke="none" stroke-width="1" fill="none" fill-rule="evenodd">
        <g id="Homapage-Desktop-Full-B" transform="translate(-25.000000, -21.000000)">
            <g id="Group" transform="translate(0.000000, -1.000000)">
                <g id="Logo" transform="translate(0.000000, 1.000000)">
                    <g id="Logo-Vidanta-Blanco" transform="translate(25.000000, 21.000000)">
                        <g id="Page-1">
                            <path d="M18.9213065,11.9438815 C21.0278935,9.2546963 19.4701109,4.89677037 19.4701109,4.89677037 C21.0173283,7.42654815 20.562437,9.7181037 20.0042413,11.0840296 C20.5401326,10.5388444 21.0355239,9.81765926 21.4017848,8.86002963 C22.8005022,5.1746963 19.2130239,2.30477037 21.817937,0.000177777778 C21.817937,0.000177777778 18.9213065,0.106844444 17.44335,3.45025185 C15.9653935,6.79484444 18.5849804,7.3104 16.6116326,12.7480296 C16.6116326,12.7480296 17.71335,12.6828444 18.9213065,11.9438815" id="Fill-1" fill="#FEFEFE"></path>
                            <path d="M16.6342304,18.6088296 C16.6342304,18.6088296 15.8999478,19.4426074 15.5665565,20.8274963 C15.9568826,24.2313481 20.1137087,26.2046815 20.1137087,26.2046815 C17.2446652,25.5190519 15.9621652,23.5747556 15.4039696,22.2076444 C15.4039696,22.9768296 15.559513,23.8414222 15.9715565,24.7771259 C17.5639696,28.3824593 22.1117087,27.8509037 21.8827957,31.3412741 C21.8827957,31.3412741 23.8579043,29.1972741 22.5589696,25.7774222 C21.2623826,22.358163 19.0483826,23.8651259 16.6342304,18.6088296" id="Fill-3" fill="#FEFEFE"></path>
                            <path d="M27.7901609,18.0139259 C24.4767913,16.522963 23.9679,19.1682963 18.5790522,17.1748148 C18.5790522,17.1748148 18.6477261,18.2871111 19.3790739,19.5078519 C22.0403348,21.6340741 26.3574,20.0613333 26.3574,20.0613333 C23.8552043,21.6222222 21.5860304,21.1659259 20.2325087,20.5982222 C20.7695739,21.141037 21.484487,21.6417778 22.4324217,22.0091852 C26.0874,23.4219259 28.9253348,19.797037 31.2056609,22.4311111 C31.2056609,22.4311111 31.1041174,19.5060741 27.7901609,18.0139259" id="Fill-5" fill="#FEFEFE"></path>
                            <path d="M15.3129913,9.4352 C15.3129913,8.66660741 15.1615565,7.80082963 14.7454043,6.86453333 C13.1500565,3.25742222 8.60583913,3.79016296 8.83651304,0.303348148 C8.83651304,0.303348148 6.85964348,2.44379259 8.15975217,5.86601481 C9.45868696,9.2834963 11.6703391,7.77831111 14.0844913,13.0346074 C14.0844913,13.0346074 14.8187739,12.1996444 15.1521652,10.814163 C14.7594913,7.40912593 10.6032522,5.44053333 10.6032522,5.44053333 C13.4717087,6.12201481 14.7542087,8.06808889 15.3129913,9.4352" id="Fill-7" fill="#FEFEFE"></path>
                            <g id="Group-11" transform="translate(0.000000, 15.593481)">
                                <mask id="mask-2" fill="white">
                                    <use xlink:href="#path-1"></use>
                                </mask>
                                <g id="Clip-10"></g>
                                <path d="M12.6124043,1.59863704 C12.6124043,1.59863704 11.7847957,0.857303704 10.4113174,0.520118519 C7.04336087,0.917155556 5.08879565,5.10915556 5.08879565,5.10915556 C5.76614348,2.2173037 7.69253478,0.920118519 9.04840435,0.354192593 C8.2877087,0.355377778 7.42840435,0.512414815 6.50042609,0.9296 C2.92762174,2.5373037 3.45764348,7.12811852 -0.000117391304,6.89582222 C-0.000117391304,6.89582222 2.12173043,8.89167407 5.51023043,7.57967407 C8.89873043,6.27122963 7.40551304,4.03419259 12.6124043,1.59863704" id="Fill-9" fill="#FEFEFE" mask="url(#mask-2)"></path>
                            </g>
                            <path d="M3.4277087,14.0428444 C6.7404913,15.5361778 7.25055652,12.8902519 12.6388174,14.8819556 C12.6388174,14.8819556 12.5713174,13.7696593 11.8387957,12.5506963 C9.17694783,10.4256593 4.86046957,11.9960296 4.86046957,11.9960296 C7.36501304,10.4321778 9.63477391,10.8920296 10.9877087,11.4585481 C10.4488826,10.9169185 9.73514348,10.4144 8.78427391,10.0487704 C5.13457826,8.63602963 2.29253478,12.257363 0.0110347826,9.62921481 C0.0110347826,9.62921481 0.115513043,12.5518815 3.4277087,14.0428444" id="Fill-12" fill="#FEFEFE"></path>
                            <path d="M11.7886696,19.6490074 C9.68443043,22.3376 11.2375174,26.6967111 11.2375174,26.6967111 C9.69323478,24.1681185 10.1446043,21.8771556 10.7069087,20.5088593 C10.1704304,21.0564148 9.67327826,21.7758222 9.31053913,22.7328593 C7.91358261,26.4211556 11.499887,29.2916741 8.8938,31.5933037 C8.8938,31.5933037 11.7916043,31.4884148 13.2660391,28.142637 C14.7457565,24.8004148 12.1244087,24.2842667 14.1018652,18.8436741 C14.1018652,18.8436741 12.9995609,18.9112296 11.7886696,19.6490074" id="Fill-14" fill="#FEFEFE"></path>
                            <path d="M20.7526696,15.6484741 C24.1264957,15.251437 26.0781261,11.0564741 26.0781261,11.0564741 C25.4013652,13.9489185 23.4726261,15.2466963 22.1214522,15.8144 C22.8809739,15.8096593 23.7408652,15.6532148 24.6647348,15.2366222 C28.2340174,13.6259556 27.7110391,9.03988148 31.1646913,9.27217778 C31.1646913,9.27217778 29.0422565,7.27573333 25.6561043,8.58832593 C22.2699522,9.89617778 23.7625826,12.1326222 18.5556913,14.5669926 C18.5556913,14.5669926 19.3821261,15.3089185 20.7526696,15.6484741" id="Fill-16" fill="#FEFEFE"></path>
                            <path d="M67.0761,21.1461333 L63.0272739,21.1461333 L63.0272739,12.033837 L67.2111,12.033837 C67.2111,12.033837 71.7876,12.2353185 71.7876,16.5233185 C71.7876,20.8095407 67.0761,21.1461333 67.0761,21.1461333 M66.535513,10.2311704 L62.6193391,10.2311704 C61.4289913,10.2311704 61.2253174,11.703763 61.2253174,11.703763 L61.2253174,21.3493926 C61.2253174,22.6228741 62.9539043,22.9570963 62.9539043,22.9570963 L66.9311217,22.9570963 C66.9311217,22.9570963 74.0327087,22.8249481 73.5684261,16.257837 C73.1035565,9.69546667 66.535513,10.2311704 66.535513,10.2311704" id="Fill-20" fill="#FEFEFE"></path>
                            <path d="M49.2489978,11.4363259 L44.4060196,21.0801778 L39.5630413,11.4363259 C39.5630413,11.4363259 39.230237,10.2292148 37.0397152,10.2292148 L42.8793457,21.9506963 C42.8793457,21.9506963 43.2074543,22.8881778 44.4060196,22.8881778 C45.6004761,22.8881778 45.9321065,21.9506963 45.9321065,21.9506963 L51.7676283,10.2292148 C49.5812152,10.2292148 49.2489978,11.4363259 49.2489978,11.4363259" id="Fill-22" fill="#FEFEFE"></path>
                            <path d="M110.009915,11.9398519 L113.519328,11.9398519 L113.519328,21.8278519 C113.519328,23.0562963 115.414611,23.2619259 115.414611,23.2619259 L115.414611,12.0068148 L118.790785,12.0068148 C120.210046,12.0068148 120.279307,10.3031111 120.279307,10.3031111 L108.659328,10.3031111 C108.659328,12.0068148 110.009915,11.9398519 110.009915,11.9398519" id="Fill-24" fill="#FEFEFE"></path>
                            <path d="M55.2469891,10.1936 L55.2469891,21.9038222 C55.2469891,23.1316741 57.1405109,23.3373037 57.1405109,23.3373037 L57.1405109,11.6282667 C57.1405109,10.4010074 55.2469891,10.1936 55.2469891,10.1936" id="Fill-26" fill="#FEFEFE"></path>
                            <path d="M82.1025391,10.2294519 C80.9098435,10.2294519 80.5776261,11.164563 80.5776261,11.164563 L74.7426913,22.8878222 C76.9302783,22.8878222 77.2636696,21.6818963 77.2636696,21.6818963 L78.2943652,19.6238222 L83.2230391,19.6238222 C84.1539522,19.6238222 84.4849957,17.9503407 84.4849957,17.9503407 L79.1360609,17.9503407 L82.1025391,12.0380444 L86.9508,21.6818963 C86.9508,21.6818963 87.2789087,22.8878222 89.4682565,22.8878222 L83.6309739,11.164563 C83.6309739,11.164563 83.2964087,10.2294519 82.1025391,10.2294519" id="Fill-28" fill="#FEFEFE"></path>
                            <path d="M128.195824,11.1643852 C128.195824,11.1643852 127.86478,10.2292741 126.67502,10.2292741 C125.482324,10.2292741 125.146585,11.1643852 125.146585,11.1643852 L119.309302,22.888237 C121.498063,22.888237 121.831454,21.6817185 121.831454,21.6817185 L122.868607,19.6236444 L127.38465,19.6236444 C128.314976,19.6236444 128.646607,17.9507556 128.646607,17.9507556 L123.70678,17.9507556 L126.67502,12.0384593 L131.519172,21.6817185 C131.519172,21.6817185 131.848454,22.888237 134.034867,22.888237 L128.195824,11.1643852 Z" id="Fill-30" fill="#FEFEFE"></path>
                            <path d="M102.977883,11.7037037 L102.977883,20.6091852 L96.073513,11.4346667 C96.073513,11.4346667 95.2793609,10.2293333 94.4171217,10.2293333 C93.2244261,10.2293333 93.0260348,11.8352593 93.0260348,11.8352593 L93.0260348,23.0222222 C94.7511,23.0222222 94.8174261,21.6817778 94.8174261,21.6817778 L94.8174261,12.6411852 C94.8174261,12.6411852 100.518535,20.4112593 101.448274,21.7493333 C102.376839,23.0885926 103.109361,23.0222222 103.109361,23.0222222 C104.505143,23.0222222 104.7006,21.6817778 104.7006,21.6817778 L104.7006,10.1605926 C103.172752,10.1605926 102.977883,11.7037037 102.977883,11.7037037" id="Fill-32" fill="#FEFEFE"></path>
                            <path d="M133.163707,11.5954963 L133.599815,11.5954963 C133.692554,11.5954963 133.76475,11.5848296 133.818163,11.5652741 C133.870402,11.5451259 133.909728,11.5137185 133.937902,11.4698667 C133.965489,11.4266074 133.978402,11.3792 133.978402,11.3270519 C133.978402,11.2523852 133.951989,11.1907556 133.898576,11.142163 C133.846337,11.0929778 133.762989,11.0692741 133.64912,11.0692741 L133.163707,11.0692741 L133.163707,11.5954963 Z M132.958859,12.4832 L132.958859,10.8938667 L133.640902,10.8938667 C133.777076,10.8938667 133.882141,10.9069037 133.95375,10.9371259 C134.024185,10.9649778 134.081707,11.0159407 134.124554,11.0876444 C134.166815,11.1611259 134.187359,11.2393481 134.187359,11.3270519 C134.187359,11.4396444 134.151554,11.5356444 134.081707,11.6126815 C134.011272,11.6903111 133.902685,11.7389037 133.755359,11.760237 C133.808772,11.7869037 133.849859,11.8135704 133.87862,11.8396444 C133.936141,11.8953481 133.993663,11.9658667 134.045902,12.0506074 L134.314141,12.4832 L134.057641,12.4832 L133.855141,12.1519407 C133.794685,12.0577185 133.746554,11.984237 133.707815,11.9326815 C133.669076,11.8823111 133.635033,11.8473481 133.605098,11.8266074 C133.573402,11.8070519 133.543467,11.7934222 133.511772,11.7845333 C133.488293,11.7797926 133.450728,11.7774222 133.398489,11.7774222 L133.163707,11.7774222 L133.163707,12.4832 L132.958859,12.4832 Z M133.511772,10.3569778 C132.809185,10.3569778 132.27975,10.9513481 132.27975,11.6790519 C132.27975,12.4174222 132.809185,13.0029037 133.52938,13.0029037 C134.232554,13.0117926 134.753772,12.4174222 134.753772,11.6790519 C134.753772,10.9513481 134.232554,10.3569778 133.519989,10.3569778 L133.511772,10.3569778 Z M133.528207,10.1952 C134.349946,10.1952 134.990315,10.8553481 134.990315,11.6790519 C134.990315,12.5211259 134.349946,13.1723852 133.519402,13.1723852 C132.697663,13.1723852 132.040859,12.5211259 132.040859,11.6790519 C132.040859,10.8553481 132.697663,10.1952 133.519402,10.1952 L133.528207,10.1952 Z" id="Fill-34" fill="#FEFEFE"></path>
                            <path d="M49.2063261,11.2870519 L44.3328261,20.9949037 L39.4558043,11.2870519 C39.4558043,11.2870519 39.4153043,11.1359407 39.2650435,10.9433481 L38.7614348,9.89505185 L32.6876087,9.89505185 C31.4866957,9.89505185 31.2871304,11.7789037 31.2871304,11.7789037 L37.7677174,11.7789037 L42.7961739,21.870163 C42.7961739,21.870163 43.1283913,22.8123852 44.3328261,22.8123852 C45.536087,22.8123852 45.8683043,21.870163 45.8683043,21.870163 L51.7402174,10.0728296 C49.5426522,10.0728296 49.2063261,11.2870519 49.2063261,11.2870519" id="Fill-36" fill="#FEFEFE"></path>
                        </g>
                    </g>
                </g>
            </g>
        </g>
    </g>
</svg>